<svg width="24" height="24" viewBox="0 0 24 24" fill="none" xmlns="http://www.w3.org/2000/svg">
<path fill-rule="evenodd" clip-rule="evenodd" d="M18.7503 10.5001L18.7438 10.7429L18.7503 11.0001L18.7441 11.2433L18.7503 11.5001L18.7444 11.745L18.7502 12.0001L18.5879 19.1031C18.5493 20.7884 17.2676 22.184 15.5916 22.3655C13.2042 22.624 10.7959 22.624 8.40843 22.3655C6.73252 22.184 5.45075 20.7884 5.41223 19.1031L5.24985 12.0001L5.25572 11.7433L5.24986 11.5001L5.25602 11.2443L5.24981 11.0001L5.25632 10.744L5.24976 10.5001L5.41376 4.40214C5.41605 4.31706 5.42203 4.23286 5.43155 4.14971L5.43528 4.11455L5.43824 4.08621C5.51885 3.26211 5.97553 2.54335 6.64105 2.11202C6.69071 2.079 6.74152 2.04755 6.79344 2.01775C6.84422 1.9877 6.89605 1.9592 6.94887 1.93231C7.27547 1.75995 7.63996 1.64823 8.02796 1.61251C10.6704 1.36927 13.3296 1.36927 15.9721 1.61252C16.3595 1.64817 16.7234 1.75959 17.0496 1.93149C17.1024 1.95834 17.1543 1.9868 17.2051 2.01681C17.2586 2.0475 17.311 2.07995 17.3622 2.11406C18.0242 2.54443 18.4788 3.25946 18.5612 4.07941L18.569 4.15371C18.5782 4.23557 18.584 4.31843 18.5863 4.40214L18.7503 10.5001ZM17.0743 4.32076L17.2313 11.1874L17.104 15.9177C17.0754 16.981 16.2563 17.8551 15.1971 17.9526C13.0702 18.1484 10.9298 18.1484 8.80298 17.9526C7.74371 17.8551 6.92461 16.981 6.89601 15.9177L6.7688 11.188L6.92579 4.32076C6.92613 4.30598 6.92675 4.29127 6.92763 4.27663C6.98711 3.87435 7.22025 3.52711 7.55079 3.31624C7.67601 3.25096 7.81495 3.20767 7.96275 3.19167C10.6464 2.90104 13.3536 2.90104 16.0373 3.19167C16.1851 3.20767 16.324 3.25093 16.4491 3.31616C16.7798 3.52708 17.0131 3.87449 17.0725 4.27696C17.0733 4.2915 17.074 4.3061 17.0743 4.32076ZM12.0001 21.7001C12.8285 21.7001 13.5001 21.0285 13.5001 20.2001C13.5001 19.3716 12.8285 18.7001 12.0001 18.7001C11.1716 18.7001 10.5001 19.3716 10.5001 20.2001C10.5001 21.0285 11.1716 21.7001 12.0001 21.7001Z" fill="#7845CB"/>
</svg>
