<svg width="367" height="85" viewBox="0 0 367 85" fill="none" xmlns="http://www.w3.org/2000/svg">
<mask id="path-1-outside-1_11_7" maskUnits="userSpaceOnUse" x="0.744019" y="0.799988" width="367" height="84" fill="black">
<rect fill="white" x="0.744019" y="0.799988" width="367" height="84"/>
<path d="M72.44 82.384H56.12V70H19.064V82.384H2.74402V54.544H11.672L32.888 2.79999H42.68L63.512 54.544H72.44V82.384ZM37.688 32.656L29.336 54.544H45.944L37.688 32.656ZM129.34 70H114.364V45.904L93.7243 70H83.9323V22H98.9083V46.096L119.548 22H129.34V70ZM175.204 45.04C178.02 45.552 180.164 46.736 181.636 48.592C183.172 50.384 183.94 52.624 183.94 55.312C183.94 60.24 182.18 64.016 178.66 66.64C175.14 69.264 170.34 70.608 164.26 70.672H163.876C159.076 70.672 154.596 69.744 150.436 67.888C146.276 65.968 143.332 63.92 141.604 61.744L149.668 52.912C154.276 55.664 158.884 57.04 163.492 57.04H163.876C165.412 56.976 166.628 56.624 167.524 55.984C168.484 55.28 168.964 54.352 168.964 53.2C168.964 51.088 167.684 50 165.124 49.936H157.828V40.912H163.78C165.7 40.912 166.66 40.048 166.66 38.32C166.66 36.08 165.316 34.96 162.628 34.96H162.34C160.164 34.96 158.276 35.248 156.676 35.824C155.14 36.4 153.22 37.36 150.916 38.704L143.14 30.16C149.156 24.272 155.972 21.328 163.588 21.328H163.972C168.964 21.392 173.156 22.608 176.548 24.976C179.94 27.344 181.636 30.608 181.636 34.768C181.636 39.888 179.492 43.312 175.204 45.04ZM241.738 70H231.946L230.986 65.296C227.146 68.816 222.442 70.576 216.874 70.576C210.154 70.576 204.618 68.208 200.266 63.472C195.978 58.736 193.834 52.912 193.834 46C193.834 39.088 195.978 33.264 200.266 28.528C204.618 23.728 210.154 21.328 216.874 21.328C222.442 21.328 227.178 23.12 231.082 26.704L231.946 22H241.738V70ZM211.69 53.392C213.61 55.184 215.85 56.08 218.41 56.08C220.97 56.08 223.21 55.184 225.13 53.392C227.05 51.536 228.01 49.072 228.01 46C228.01 42.928 227.05 40.464 225.13 38.608C223.21 36.752 220.97 35.824 218.41 35.824C215.85 35.824 213.61 36.752 211.69 38.608C209.77 40.464 208.81 42.928 208.81 46C208.81 49.072 209.77 51.536 211.69 53.392ZM291.45 14.128C288.442 17.072 284.73 18.544 280.314 18.544C275.898 18.544 272.154 17.072 269.082 14.128C266.01 11.12 264.474 7.37599 264.474 2.89599H274.65C274.65 4.43199 275.194 5.74399 276.282 6.83199C277.37 7.85599 278.714 8.36799 280.314 8.36799C281.85 8.36799 283.162 7.85599 284.25 6.83199C285.338 5.74399 285.882 4.43199 285.882 2.89599H296.058C296.058 7.37599 294.522 11.12 291.45 14.128ZM302.778 70H287.802V45.904L267.162 70H257.37V22H272.346V46.096L292.986 22H302.778V70ZM364.769 70H349.793V52.816H333.377V70H318.401V22H333.377V38.32H349.793V22H364.769V70Z"/>
</mask>
<path d="M72.44 82.384H56.12V70H19.064V82.384H2.74402V54.544H11.672L32.888 2.79999H42.68L63.512 54.544H72.44V82.384ZM37.688 32.656L29.336 54.544H45.944L37.688 32.656ZM129.34 70H114.364V45.904L93.7243 70H83.9323V22H98.9083V46.096L119.548 22H129.34V70ZM175.204 45.04C178.02 45.552 180.164 46.736 181.636 48.592C183.172 50.384 183.94 52.624 183.94 55.312C183.94 60.24 182.18 64.016 178.66 66.64C175.14 69.264 170.34 70.608 164.26 70.672H163.876C159.076 70.672 154.596 69.744 150.436 67.888C146.276 65.968 143.332 63.92 141.604 61.744L149.668 52.912C154.276 55.664 158.884 57.04 163.492 57.04H163.876C165.412 56.976 166.628 56.624 167.524 55.984C168.484 55.28 168.964 54.352 168.964 53.2C168.964 51.088 167.684 50 165.124 49.936H157.828V40.912H163.78C165.7 40.912 166.66 40.048 166.66 38.32C166.66 36.08 165.316 34.96 162.628 34.96H162.34C160.164 34.96 158.276 35.248 156.676 35.824C155.14 36.4 153.22 37.36 150.916 38.704L143.14 30.16C149.156 24.272 155.972 21.328 163.588 21.328H163.972C168.964 21.392 173.156 22.608 176.548 24.976C179.94 27.344 181.636 30.608 181.636 34.768C181.636 39.888 179.492 43.312 175.204 45.04ZM241.738 70H231.946L230.986 65.296C227.146 68.816 222.442 70.576 216.874 70.576C210.154 70.576 204.618 68.208 200.266 63.472C195.978 58.736 193.834 52.912 193.834 46C193.834 39.088 195.978 33.264 200.266 28.528C204.618 23.728 210.154 21.328 216.874 21.328C222.442 21.328 227.178 23.12 231.082 26.704L231.946 22H241.738V70ZM211.69 53.392C213.61 55.184 215.85 56.08 218.41 56.08C220.97 56.08 223.21 55.184 225.13 53.392C227.05 51.536 228.01 49.072 228.01 46C228.01 42.928 227.05 40.464 225.13 38.608C223.21 36.752 220.97 35.824 218.41 35.824C215.85 35.824 213.61 36.752 211.69 38.608C209.77 40.464 208.81 42.928 208.81 46C208.81 49.072 209.77 51.536 211.69 53.392ZM291.45 14.128C288.442 17.072 284.73 18.544 280.314 18.544C275.898 18.544 272.154 17.072 269.082 14.128C266.01 11.12 264.474 7.37599 264.474 2.89599H274.65C274.65 4.43199 275.194 5.74399 276.282 6.83199C277.37 7.85599 278.714 8.36799 280.314 8.36799C281.85 8.36799 283.162 7.85599 284.25 6.83199C285.338 5.74399 285.882 4.43199 285.882 2.89599H296.058C296.058 7.37599 294.522 11.12 291.45 14.128ZM302.778 70H287.802V45.904L267.162 70H257.37V22H272.346V46.096L292.986 22H302.778V70ZM364.769 70H349.793V52.816H333.377V70H318.401V22H333.377V38.32H349.793V22H364.769V70Z" stroke="#4964D0" stroke-width="4" mask="url(#path-1-outside-1_11_7)"/>
</svg>
