<svg width="350" height="318" viewBox="0 0 350 318" fill="none" xmlns="http://www.w3.org/2000/svg">
<path d="M117.25 102.125H232.75M117.25 159.875H232.75M84.7656 263.284L25.3914 313.093C23.288 314.834 20.7343 315.942 18.0264 316.29C15.3185 316.638 12.5675 316.211 10.0926 315.058C7.61762 313.906 5.52016 312.075 4.04353 309.779C2.5669 307.482 1.77163 304.814 1.75 302.084V15.5C1.75 11.6709 3.27109 7.99871 5.97865 5.29115C8.68621 2.58359 12.3584 1.0625 16.1875 1.0625H333.812C337.642 1.0625 341.314 2.58359 344.021 5.29115C346.729 7.99871 348.25 11.6709 348.25 15.5V246.5C348.25 250.329 346.729 254.001 344.021 256.709C341.314 259.416 337.642 260.938 333.812 260.938H91.443L84.7656 263.284Z" stroke="#7845CB" stroke-width="2" stroke-linecap="round" stroke-linejoin="round"/>
</svg>
