<svg width="533" height="90" viewBox="0 0 533 90" fill="none" xmlns="http://www.w3.org/2000/svg">
<mask id="path-1-outside-1_11_6" maskUnits="userSpaceOnUse" x="0.735992" y="0.799988" width="533" height="89" fill="black">
<rect fill="white" x="0.735992" y="0.799988" width="533" height="89"/>
<path d="M70.608 70H54.288V32.368L36.624 53.968L19.056 32.368V70H2.73599V2.79999H12.528L36.624 32.752L60.816 2.79999H70.608V70ZM133.144 70H123.352L122.392 65.296C118.552 68.816 113.848 70.576 108.28 70.576C101.56 70.576 96.0237 68.208 91.6717 63.472C87.3837 58.736 85.2397 52.912 85.2397 46C85.2397 39.088 87.3837 33.264 91.6717 28.528C96.0237 23.728 101.56 21.328 108.28 21.328C113.848 21.328 118.584 23.12 122.488 26.704L123.352 22H133.144V70ZM103.096 53.392C105.016 55.184 107.256 56.08 109.816 56.08C112.376 56.08 114.616 55.184 116.536 53.392C118.456 51.536 119.416 49.072 119.416 46C119.416 42.928 118.456 40.464 116.536 38.608C114.616 36.752 112.376 35.824 109.816 35.824C107.256 35.824 105.016 36.752 103.096 38.608C101.176 40.464 100.216 42.928 100.216 46C100.216 49.072 101.176 51.536 103.096 53.392ZM174.12 21.424C180.84 21.424 186.344 23.792 190.632 28.528C194.984 33.264 197.16 39.088 197.16 46C197.16 52.912 194.984 58.768 190.632 63.568C186.344 68.304 180.84 70.672 174.12 70.672C170.472 70.672 167.176 69.776 164.232 67.984V87.664H149.256V22H159.144L160.008 26.704C163.848 23.184 168.552 21.424 174.12 21.424ZM172.584 35.92C170.088 35.92 167.848 36.848 165.864 38.704C163.944 40.496 162.984 42.928 162.984 46C162.984 49.072 163.944 51.536 165.864 53.392C167.848 55.248 170.088 56.176 172.584 56.176C175.144 56.176 177.384 55.248 179.304 53.392C181.224 51.536 182.184 49.072 182.184 46C182.184 42.928 181.224 40.496 179.304 38.704C177.384 36.848 175.144 35.92 172.584 35.92ZM242.061 70L233.613 56.944C232.525 55.28 231.501 54.16 230.541 53.584C229.581 52.944 228.269 52.624 226.605 52.624H225.357V70H210.381V22H225.357V38.128H226.509C228.173 38.128 229.485 37.84 230.445 37.264C231.405 36.624 232.429 35.504 233.517 33.904L241.197 22H257.805L246.189 39.664C245.421 40.816 244.429 42 243.213 43.216C241.997 44.368 241.005 45.104 240.237 45.424C241.069 45.68 242.061 46.384 243.213 47.536C244.429 48.688 245.453 49.872 246.285 51.088L258.669 70H242.061ZM288.023 21.328C298.007 21.328 304.951 25.456 308.855 33.712C310.007 36.08 310.615 38.864 310.679 42.064C310.807 45.264 310.423 48.016 309.527 50.32H279.383C279.383 52.368 280.215 54 281.879 55.216C283.607 56.368 285.687 56.944 288.119 56.944C292.919 56.944 297.367 56.112 301.463 54.448L309.239 62.992C302.391 68.048 295.351 70.576 288.119 70.576C281.015 70.576 275.191 68.24 270.647 63.568C266.167 58.832 263.927 52.976 263.927 46C263.927 38.96 266.103 33.104 270.455 28.432C274.807 23.696 280.663 21.328 288.023 21.328ZM288.023 35.056C285.719 35.056 283.799 35.696 282.263 36.976C280.791 38.192 280.023 39.504 279.959 40.912H295.991C295.991 39.952 295.607 39.024 294.839 38.128C293.367 36.08 291.095 35.056 288.023 35.056ZM348.363 36.496V70H333.387V36.496H319.851V22H361.803V36.496H348.363ZM417.871 70H402.896V45.904L382.255 70H372.464V22H387.439V46.096L408.079 22H417.871V70ZM479.863 70H464.887V52.816H448.471V70H433.495V22H448.471V38.32H464.887V22H479.863V70ZM510.346 36.496V70H495.37V22H530.794V36.496H510.346Z"/>
</mask>
<path d="M70.608 70H54.288V32.368L36.624 53.968L19.056 32.368V70H2.73599V2.79999H12.528L36.624 32.752L60.816 2.79999H70.608V70ZM133.144 70H123.352L122.392 65.296C118.552 68.816 113.848 70.576 108.28 70.576C101.56 70.576 96.0237 68.208 91.6717 63.472C87.3837 58.736 85.2397 52.912 85.2397 46C85.2397 39.088 87.3837 33.264 91.6717 28.528C96.0237 23.728 101.56 21.328 108.28 21.328C113.848 21.328 118.584 23.12 122.488 26.704L123.352 22H133.144V70ZM103.096 53.392C105.016 55.184 107.256 56.08 109.816 56.08C112.376 56.08 114.616 55.184 116.536 53.392C118.456 51.536 119.416 49.072 119.416 46C119.416 42.928 118.456 40.464 116.536 38.608C114.616 36.752 112.376 35.824 109.816 35.824C107.256 35.824 105.016 36.752 103.096 38.608C101.176 40.464 100.216 42.928 100.216 46C100.216 49.072 101.176 51.536 103.096 53.392ZM174.12 21.424C180.84 21.424 186.344 23.792 190.632 28.528C194.984 33.264 197.16 39.088 197.16 46C197.16 52.912 194.984 58.768 190.632 63.568C186.344 68.304 180.84 70.672 174.12 70.672C170.472 70.672 167.176 69.776 164.232 67.984V87.664H149.256V22H159.144L160.008 26.704C163.848 23.184 168.552 21.424 174.12 21.424ZM172.584 35.92C170.088 35.92 167.848 36.848 165.864 38.704C163.944 40.496 162.984 42.928 162.984 46C162.984 49.072 163.944 51.536 165.864 53.392C167.848 55.248 170.088 56.176 172.584 56.176C175.144 56.176 177.384 55.248 179.304 53.392C181.224 51.536 182.184 49.072 182.184 46C182.184 42.928 181.224 40.496 179.304 38.704C177.384 36.848 175.144 35.92 172.584 35.92ZM242.061 70L233.613 56.944C232.525 55.28 231.501 54.16 230.541 53.584C229.581 52.944 228.269 52.624 226.605 52.624H225.357V70H210.381V22H225.357V38.128H226.509C228.173 38.128 229.485 37.84 230.445 37.264C231.405 36.624 232.429 35.504 233.517 33.904L241.197 22H257.805L246.189 39.664C245.421 40.816 244.429 42 243.213 43.216C241.997 44.368 241.005 45.104 240.237 45.424C241.069 45.68 242.061 46.384 243.213 47.536C244.429 48.688 245.453 49.872 246.285 51.088L258.669 70H242.061ZM288.023 21.328C298.007 21.328 304.951 25.456 308.855 33.712C310.007 36.08 310.615 38.864 310.679 42.064C310.807 45.264 310.423 48.016 309.527 50.32H279.383C279.383 52.368 280.215 54 281.879 55.216C283.607 56.368 285.687 56.944 288.119 56.944C292.919 56.944 297.367 56.112 301.463 54.448L309.239 62.992C302.391 68.048 295.351 70.576 288.119 70.576C281.015 70.576 275.191 68.24 270.647 63.568C266.167 58.832 263.927 52.976 263.927 46C263.927 38.96 266.103 33.104 270.455 28.432C274.807 23.696 280.663 21.328 288.023 21.328ZM288.023 35.056C285.719 35.056 283.799 35.696 282.263 36.976C280.791 38.192 280.023 39.504 279.959 40.912H295.991C295.991 39.952 295.607 39.024 294.839 38.128C293.367 36.08 291.095 35.056 288.023 35.056ZM348.363 36.496V70H333.387V36.496H319.851V22H361.803V36.496H348.363ZM417.871 70H402.896V45.904L382.255 70H372.464V22H387.439V46.096L408.079 22H417.871V70ZM479.863 70H464.887V52.816H448.471V70H433.495V22H448.471V38.32H464.887V22H479.863V70ZM510.346 36.496V70H495.37V22H530.794V36.496H510.346Z" stroke="#4964D0" stroke-width="4" mask="url(#path-1-outside-1_11_6)"/>
</svg>
