<svg width="290" height="290" viewBox="0 0 290 290" fill="none" xmlns="http://www.w3.org/2000/svg">
<mask id="path-1-inside-1_317_121" fill="white">
<path d="M45.3969 107.376C48.7675 107.376 51.5835 108.624 53.8449 111.12L52.2129 112.592C50.3569 110.672 48.0849 109.712 45.3969 109.712C42.9009 109.712 40.7889 110.587 39.0609 112.336C37.3542 114.064 36.5009 116.219 36.5009 118.8C36.5009 121.381 37.3542 123.547 39.0609 125.296C40.7889 127.024 42.9009 127.888 45.3969 127.888C48.1275 127.888 50.3995 126.928 52.2129 125.008L53.8449 126.544C51.6049 128.997 48.7889 130.224 45.3969 130.224C42.2395 130.224 39.5515 129.115 37.3329 126.896C35.1142 124.656 34.0049 121.957 34.0049 118.8C34.0049 115.643 35.1142 112.955 37.3329 110.736C39.5515 108.496 42.2395 107.376 45.3969 107.376Z"/>
<path d="M74.8771 130H72.5411V117.904L66.6531 124.592L60.7651 117.904V130H58.4291V114H59.8371L66.6531 121.744L73.4691 114H74.8771V130Z"/>
<path d="M88.0361 113.776C90.3188 113.776 92.2601 114.587 93.8601 116.208C95.4601 117.808 96.2601 119.739 96.2601 122C96.2601 124.261 95.4601 126.192 93.8601 127.792C92.2601 129.392 90.3188 130.192 88.0361 130.192C85.7535 130.192 83.8121 129.392 82.2121 127.792C80.6335 126.192 79.8441 124.261 79.8441 122C79.8441 119.717 80.6441 117.776 82.2441 116.176C83.8441 114.576 85.7748 113.776 88.0361 113.776ZM88.0041 116.016C86.4041 116.016 85.0281 116.592 83.8761 117.744C82.7241 118.875 82.1481 120.293 82.1481 122C82.1481 123.707 82.7135 125.125 83.8441 126.256C84.9961 127.387 86.3828 127.952 88.0041 127.952C89.6255 127.952 91.0121 127.387 92.1641 126.256C93.3161 125.125 93.8921 123.707 93.8921 122C93.8921 120.293 93.3161 118.875 92.1641 117.744C91.0121 116.592 89.6255 116.016 88.0041 116.016Z"/>
<path d="M107.172 116.208V130H104.836V116.208H98.9801V114H113.028V116.208H107.172Z"/>
<path d="M125.595 113.776C127.856 113.776 129.755 114.576 131.291 116.176C132.827 117.776 133.595 119.717 133.595 122C133.595 124.283 132.827 126.224 131.291 127.824C129.755 129.403 127.856 130.192 125.595 130.192C124.315 130.192 123.142 129.883 122.075 129.264C121.03 128.624 120.23 127.781 119.675 126.736V135.888H117.339V114H119.003L119.099 117.616C119.718 116.464 120.603 115.536 121.755 114.832C122.907 114.128 124.187 113.776 125.595 113.776ZM125.403 116.016C123.782 116.016 122.395 116.592 121.243 117.744C120.091 118.875 119.515 120.293 119.515 122C119.515 123.707 120.091 125.136 121.243 126.288C122.395 127.419 123.782 127.984 125.403 127.984C127.003 127.984 128.379 127.419 129.531 126.288C130.683 125.136 131.259 123.707 131.259 122C131.259 120.293 130.683 118.875 129.531 117.744C128.379 116.592 127.003 116.016 125.403 116.016Z"/>
<path d="M145.753 113.776C147.481 113.776 148.964 114.192 150.201 115.024C151.439 115.856 152.356 116.997 152.953 118.448C153.209 119.067 153.359 119.781 153.401 120.592C153.465 121.403 153.412 122.053 153.241 122.544H139.993C139.993 124.229 140.548 125.573 141.657 126.576C142.788 127.557 144.239 128.059 146.009 128.08C148.036 128.08 149.881 127.504 151.545 126.352L152.793 127.76C150.724 129.381 148.463 130.192 146.009 130.192C143.535 130.171 141.519 129.403 139.961 127.888C138.404 126.373 137.625 124.411 137.625 122C137.625 119.675 138.372 117.723 139.865 116.144C141.38 114.565 143.343 113.776 145.753 113.776ZM145.753 115.92C144.175 115.92 142.852 116.411 141.785 117.392C140.74 118.373 140.175 119.568 140.089 120.976H151.129C151.172 120.421 151.055 119.813 150.777 119.152C150.372 118.171 149.732 117.392 148.857 116.816C147.983 116.219 146.948 115.92 145.753 115.92Z"/>
<path d="M164.453 116.208V130H162.117V116.208H156.261V114H170.309V116.208H164.453Z"/>
<path d="M176.796 119.184H182.3C184.583 119.184 186.204 119.707 187.164 120.752C188.146 121.797 188.636 123.067 188.636 124.56C188.636 125.264 188.53 125.915 188.316 126.512C188.124 127.109 187.804 127.685 187.356 128.24C186.908 128.773 186.247 129.2 185.372 129.52C184.519 129.84 183.495 130 182.3 130H174.46V114H176.796V119.184ZM176.764 127.824H182.492C185.031 127.824 186.3 126.736 186.3 124.56C186.3 122.427 185.031 121.36 182.492 121.36H176.764V127.824Z"/>
<path d="M203.585 114H211.969C213.719 114 215.009 114.373 215.841 115.12C216.695 115.867 217.121 116.869 217.121 118.128C217.121 119.92 216.332 121.083 214.753 121.616C216.823 122.128 217.857 123.408 217.857 125.456C217.857 126.971 217.388 128.112 216.449 128.88C215.511 129.627 214.039 130 212.033 130H203.585V114ZM205.889 115.984V120.816H211.841C213.783 120.816 214.753 120.016 214.753 118.416C214.753 116.795 213.772 115.984 211.809 115.984H205.889ZM205.889 128.016H212.065C214.348 128.016 215.489 127.109 215.489 125.296C215.489 123.504 214.348 122.608 212.065 122.608L205.889 122.576V128.016Z"/>
<path d="M230.13 113.776C232.69 113.776 234.791 114.768 236.434 116.752L235.026 118.256C233.661 116.763 232.029 116.016 230.13 116.016C228.509 116.016 227.122 116.592 225.97 117.744C224.839 118.875 224.274 120.293 224.274 122C224.274 123.707 224.839 125.125 225.97 126.256C227.122 127.387 228.509 127.952 230.13 127.952C232.05 127.952 233.682 127.216 235.026 125.744L236.434 127.248C234.791 129.211 232.69 130.192 230.13 130.192C227.847 130.192 225.906 129.392 224.306 127.792C222.727 126.192 221.938 124.261 221.938 122C221.938 119.717 222.738 117.776 224.338 116.176C225.938 114.576 227.869 113.776 230.13 113.776Z"/>
<path d="M248.441 113.776C250.169 113.776 251.652 114.192 252.889 115.024C254.126 115.856 255.044 116.997 255.641 118.448C255.897 119.067 256.046 119.781 256.089 120.592C256.153 121.403 256.1 122.053 255.929 122.544H242.681C242.681 124.229 243.236 125.573 244.345 126.576C245.476 127.557 246.926 128.059 248.697 128.08C250.724 128.08 252.569 127.504 254.233 126.352L255.481 127.76C253.412 129.381 251.15 130.192 248.697 130.192C246.222 130.171 244.206 129.403 242.649 127.888C241.092 126.373 240.313 124.411 240.313 122C240.313 119.675 241.06 117.723 242.553 116.144C244.068 114.565 246.03 113.776 248.441 113.776ZM248.441 115.92C246.862 115.92 245.54 116.411 244.473 117.392C243.428 118.373 242.862 119.568 242.777 120.976H253.817C253.86 120.421 253.742 119.813 253.465 119.152C253.06 118.171 252.42 117.392 251.545 116.816C250.67 116.219 249.636 115.92 248.441 115.92Z"/>
<path d="M91.7376 172H89.4336V158.208H79.5776V172H77.2416V156H91.7376V172Z"/>
<path d="M106.095 155.776C108.356 155.776 110.255 156.576 111.791 158.176C113.327 159.776 114.095 161.717 114.095 164C114.095 166.283 113.327 168.224 111.791 169.824C110.255 171.403 108.356 172.192 106.095 172.192C104.815 172.192 103.642 171.883 102.575 171.264C101.53 170.624 100.73 169.781 100.175 168.736V177.888H97.8391V156H99.5031L99.5991 159.616C100.218 158.464 101.103 157.536 102.255 156.832C103.407 156.128 104.687 155.776 106.095 155.776ZM105.903 158.016C104.282 158.016 102.895 158.592 101.743 159.744C100.591 160.875 100.015 162.293 100.015 164C100.015 165.707 100.591 167.136 101.743 168.288C102.895 169.419 104.282 169.984 105.903 169.984C107.503 169.984 108.879 169.419 110.031 168.288C111.183 167.136 111.759 165.707 111.759 164C111.759 162.293 111.183 160.875 110.031 159.744C108.879 158.592 107.503 158.016 105.903 158.016Z"/>
<path d="M126.317 155.776C128.6 155.776 130.541 156.587 132.141 158.208C133.741 159.808 134.541 161.739 134.541 164C134.541 166.261 133.741 168.192 132.141 169.792C130.541 171.392 128.6 172.192 126.317 172.192C124.035 172.192 122.093 171.392 120.493 169.792C118.915 168.192 118.125 166.261 118.125 164C118.125 161.717 118.925 159.776 120.525 158.176C122.125 156.576 124.056 155.776 126.317 155.776ZM126.285 158.016C124.685 158.016 123.309 158.592 122.157 159.744C121.005 160.875 120.429 162.293 120.429 164C120.429 165.707 120.995 167.125 122.125 168.256C123.277 169.387 124.664 169.952 126.285 169.952C127.907 169.952 129.293 169.387 130.445 168.256C131.597 167.125 132.173 165.707 132.173 164C132.173 162.293 131.597 160.875 130.445 159.744C129.293 158.592 127.907 158.016 126.285 158.016Z"/>
<path d="M146.66 155.776C148.388 155.776 149.87 156.192 151.108 157.024C152.345 157.856 153.262 158.997 153.86 160.448C154.116 161.067 154.265 161.781 154.308 162.592C154.372 163.403 154.318 164.053 154.148 164.544H140.9C140.9 166.229 141.454 167.573 142.564 168.576C143.694 169.557 145.145 170.059 146.916 170.08C148.942 170.08 150.788 169.504 152.452 168.352L153.7 169.76C151.63 171.381 149.369 172.192 146.916 172.192C144.441 172.171 142.425 171.403 140.868 169.888C139.31 168.373 138.532 166.411 138.532 164C138.532 161.675 139.278 159.723 140.772 158.144C142.286 156.565 144.249 155.776 146.66 155.776ZM146.66 157.92C145.081 157.92 143.758 158.411 142.692 159.392C141.646 160.373 141.081 161.568 140.996 162.976H152.036C152.078 162.421 151.961 161.813 151.684 161.152C151.278 160.171 150.638 159.392 149.764 158.816C148.889 158.219 147.854 157.92 146.66 157.92Z"/>
<path d="M171.302 172L168.678 167.968C167.867 166.709 167.206 165.877 166.694 165.472C166.203 165.067 165.414 164.864 164.326 164.864H161.894V172H159.558V156H161.894V162.624H163.974C165.062 162.624 165.851 162.421 166.342 162.016C166.854 161.611 167.515 160.779 168.326 159.52L170.63 156H173.254L170.246 160.544C169.627 161.483 169.105 162.187 168.678 162.656C168.273 163.125 167.835 163.467 167.366 163.68C167.942 163.851 168.454 164.181 168.902 164.672C169.371 165.163 169.937 165.92 170.598 166.944L173.894 172H171.302Z"/>
<path d="M184.297 158.208V172H181.961V158.208H176.105V156H190.153V158.208H184.297Z"/>
<path d="M196.64 161.184H202.144C204.427 161.184 206.048 161.707 207.008 162.752C207.989 163.797 208.48 165.067 208.48 166.56C208.48 167.264 208.373 167.915 208.16 168.512C207.968 169.109 207.648 169.685 207.2 170.24C206.752 170.773 206.091 171.2 205.216 171.52C204.363 171.84 203.339 172 202.144 172H194.304V156H196.64V161.184ZM212.8 172H210.464V156H212.8V172ZM196.608 169.824H202.336C204.875 169.824 206.144 168.736 206.144 166.56C206.144 164.427 204.875 163.36 202.336 163.36H196.608V169.824Z"/>
<path d="M290 145C290 225.081 225.081 290 145 290C64.9187 290 0 225.081 0 145C0 64.9187 64.9187 0 145 0C225.081 0 290 64.9187 290 145Z"/>
</mask>
<path d="M45.3969 107.376C48.7675 107.376 51.5835 108.624 53.8449 111.12L52.2129 112.592C50.3569 110.672 48.0849 109.712 45.3969 109.712C42.9009 109.712 40.7889 110.587 39.0609 112.336C37.3542 114.064 36.5009 116.219 36.5009 118.8C36.5009 121.381 37.3542 123.547 39.0609 125.296C40.7889 127.024 42.9009 127.888 45.3969 127.888C48.1275 127.888 50.3995 126.928 52.2129 125.008L53.8449 126.544C51.6049 128.997 48.7889 130.224 45.3969 130.224C42.2395 130.224 39.5515 129.115 37.3329 126.896C35.1142 124.656 34.0049 121.957 34.0049 118.8C34.0049 115.643 35.1142 112.955 37.3329 110.736C39.5515 108.496 42.2395 107.376 45.3969 107.376Z" fill="black"/>
<path d="M74.8771 130H72.5411V117.904L66.6531 124.592L60.7651 117.904V130H58.4291V114H59.8371L66.6531 121.744L73.4691 114H74.8771V130Z" fill="black"/>
<path d="M88.0361 113.776C90.3188 113.776 92.2601 114.587 93.8601 116.208C95.4601 117.808 96.2601 119.739 96.2601 122C96.2601 124.261 95.4601 126.192 93.8601 127.792C92.2601 129.392 90.3188 130.192 88.0361 130.192C85.7535 130.192 83.8121 129.392 82.2121 127.792C80.6335 126.192 79.8441 124.261 79.8441 122C79.8441 119.717 80.6441 117.776 82.2441 116.176C83.8441 114.576 85.7748 113.776 88.0361 113.776ZM88.0041 116.016C86.4041 116.016 85.0281 116.592 83.8761 117.744C82.7241 118.875 82.1481 120.293 82.1481 122C82.1481 123.707 82.7135 125.125 83.8441 126.256C84.9961 127.387 86.3828 127.952 88.0041 127.952C89.6255 127.952 91.0121 127.387 92.1641 126.256C93.3161 125.125 93.8921 123.707 93.8921 122C93.8921 120.293 93.3161 118.875 92.1641 117.744C91.0121 116.592 89.6255 116.016 88.0041 116.016Z" fill="black"/>
<path d="M107.172 116.208V130H104.836V116.208H98.9801V114H113.028V116.208H107.172Z" fill="black"/>
<path d="M125.595 113.776C127.856 113.776 129.755 114.576 131.291 116.176C132.827 117.776 133.595 119.717 133.595 122C133.595 124.283 132.827 126.224 131.291 127.824C129.755 129.403 127.856 130.192 125.595 130.192C124.315 130.192 123.142 129.883 122.075 129.264C121.03 128.624 120.23 127.781 119.675 126.736V135.888H117.339V114H119.003L119.099 117.616C119.718 116.464 120.603 115.536 121.755 114.832C122.907 114.128 124.187 113.776 125.595 113.776ZM125.403 116.016C123.782 116.016 122.395 116.592 121.243 117.744C120.091 118.875 119.515 120.293 119.515 122C119.515 123.707 120.091 125.136 121.243 126.288C122.395 127.419 123.782 127.984 125.403 127.984C127.003 127.984 128.379 127.419 129.531 126.288C130.683 125.136 131.259 123.707 131.259 122C131.259 120.293 130.683 118.875 129.531 117.744C128.379 116.592 127.003 116.016 125.403 116.016Z" fill="black"/>
<path d="M145.753 113.776C147.481 113.776 148.964 114.192 150.201 115.024C151.439 115.856 152.356 116.997 152.953 118.448C153.209 119.067 153.359 119.781 153.401 120.592C153.465 121.403 153.412 122.053 153.241 122.544H139.993C139.993 124.229 140.548 125.573 141.657 126.576C142.788 127.557 144.239 128.059 146.009 128.08C148.036 128.08 149.881 127.504 151.545 126.352L152.793 127.76C150.724 129.381 148.463 130.192 146.009 130.192C143.535 130.171 141.519 129.403 139.961 127.888C138.404 126.373 137.625 124.411 137.625 122C137.625 119.675 138.372 117.723 139.865 116.144C141.38 114.565 143.343 113.776 145.753 113.776ZM145.753 115.92C144.175 115.92 142.852 116.411 141.785 117.392C140.74 118.373 140.175 119.568 140.089 120.976H151.129C151.172 120.421 151.055 119.813 150.777 119.152C150.372 118.171 149.732 117.392 148.857 116.816C147.983 116.219 146.948 115.92 145.753 115.92Z" fill="black"/>
<path d="M164.453 116.208V130H162.117V116.208H156.261V114H170.309V116.208H164.453Z" fill="black"/>
<path d="M176.796 119.184H182.3C184.583 119.184 186.204 119.707 187.164 120.752C188.146 121.797 188.636 123.067 188.636 124.56C188.636 125.264 188.53 125.915 188.316 126.512C188.124 127.109 187.804 127.685 187.356 128.24C186.908 128.773 186.247 129.2 185.372 129.52C184.519 129.84 183.495 130 182.3 130H174.46V114H176.796V119.184ZM176.764 127.824H182.492C185.031 127.824 186.3 126.736 186.3 124.56C186.3 122.427 185.031 121.36 182.492 121.36H176.764V127.824Z" fill="black"/>
<path d="M203.585 114H211.969C213.719 114 215.009 114.373 215.841 115.12C216.695 115.867 217.121 116.869 217.121 118.128C217.121 119.92 216.332 121.083 214.753 121.616C216.823 122.128 217.857 123.408 217.857 125.456C217.857 126.971 217.388 128.112 216.449 128.88C215.511 129.627 214.039 130 212.033 130H203.585V114ZM205.889 115.984V120.816H211.841C213.783 120.816 214.753 120.016 214.753 118.416C214.753 116.795 213.772 115.984 211.809 115.984H205.889ZM205.889 128.016H212.065C214.348 128.016 215.489 127.109 215.489 125.296C215.489 123.504 214.348 122.608 212.065 122.608L205.889 122.576V128.016Z" fill="black"/>
<path d="M230.13 113.776C232.69 113.776 234.791 114.768 236.434 116.752L235.026 118.256C233.661 116.763 232.029 116.016 230.13 116.016C228.509 116.016 227.122 116.592 225.97 117.744C224.839 118.875 224.274 120.293 224.274 122C224.274 123.707 224.839 125.125 225.97 126.256C227.122 127.387 228.509 127.952 230.13 127.952C232.05 127.952 233.682 127.216 235.026 125.744L236.434 127.248C234.791 129.211 232.69 130.192 230.13 130.192C227.847 130.192 225.906 129.392 224.306 127.792C222.727 126.192 221.938 124.261 221.938 122C221.938 119.717 222.738 117.776 224.338 116.176C225.938 114.576 227.869 113.776 230.13 113.776Z" fill="black"/>
<path d="M248.441 113.776C250.169 113.776 251.652 114.192 252.889 115.024C254.126 115.856 255.044 116.997 255.641 118.448C255.897 119.067 256.046 119.781 256.089 120.592C256.153 121.403 256.1 122.053 255.929 122.544H242.681C242.681 124.229 243.236 125.573 244.345 126.576C245.476 127.557 246.926 128.059 248.697 128.08C250.724 128.08 252.569 127.504 254.233 126.352L255.481 127.76C253.412 129.381 251.15 130.192 248.697 130.192C246.222 130.171 244.206 129.403 242.649 127.888C241.092 126.373 240.313 124.411 240.313 122C240.313 119.675 241.06 117.723 242.553 116.144C244.068 114.565 246.03 113.776 248.441 113.776ZM248.441 115.92C246.862 115.92 245.54 116.411 244.473 117.392C243.428 118.373 242.862 119.568 242.777 120.976H253.817C253.86 120.421 253.742 119.813 253.465 119.152C253.06 118.171 252.42 117.392 251.545 116.816C250.67 116.219 249.636 115.92 248.441 115.92Z" fill="black"/>
<path d="M91.7376 172H89.4336V158.208H79.5776V172H77.2416V156H91.7376V172Z" fill="black"/>
<path d="M106.095 155.776C108.356 155.776 110.255 156.576 111.791 158.176C113.327 159.776 114.095 161.717 114.095 164C114.095 166.283 113.327 168.224 111.791 169.824C110.255 171.403 108.356 172.192 106.095 172.192C104.815 172.192 103.642 171.883 102.575 171.264C101.53 170.624 100.73 169.781 100.175 168.736V177.888H97.8391V156H99.5031L99.5991 159.616C100.218 158.464 101.103 157.536 102.255 156.832C103.407 156.128 104.687 155.776 106.095 155.776ZM105.903 158.016C104.282 158.016 102.895 158.592 101.743 159.744C100.591 160.875 100.015 162.293 100.015 164C100.015 165.707 100.591 167.136 101.743 168.288C102.895 169.419 104.282 169.984 105.903 169.984C107.503 169.984 108.879 169.419 110.031 168.288C111.183 167.136 111.759 165.707 111.759 164C111.759 162.293 111.183 160.875 110.031 159.744C108.879 158.592 107.503 158.016 105.903 158.016Z" fill="black"/>
<path d="M126.317 155.776C128.6 155.776 130.541 156.587 132.141 158.208C133.741 159.808 134.541 161.739 134.541 164C134.541 166.261 133.741 168.192 132.141 169.792C130.541 171.392 128.6 172.192 126.317 172.192C124.035 172.192 122.093 171.392 120.493 169.792C118.915 168.192 118.125 166.261 118.125 164C118.125 161.717 118.925 159.776 120.525 158.176C122.125 156.576 124.056 155.776 126.317 155.776ZM126.285 158.016C124.685 158.016 123.309 158.592 122.157 159.744C121.005 160.875 120.429 162.293 120.429 164C120.429 165.707 120.995 167.125 122.125 168.256C123.277 169.387 124.664 169.952 126.285 169.952C127.907 169.952 129.293 169.387 130.445 168.256C131.597 167.125 132.173 165.707 132.173 164C132.173 162.293 131.597 160.875 130.445 159.744C129.293 158.592 127.907 158.016 126.285 158.016Z" fill="black"/>
<path d="M146.66 155.776C148.388 155.776 149.87 156.192 151.108 157.024C152.345 157.856 153.262 158.997 153.86 160.448C154.116 161.067 154.265 161.781 154.308 162.592C154.372 163.403 154.318 164.053 154.148 164.544H140.9C140.9 166.229 141.454 167.573 142.564 168.576C143.694 169.557 145.145 170.059 146.916 170.08C148.942 170.08 150.788 169.504 152.452 168.352L153.7 169.76C151.63 171.381 149.369 172.192 146.916 172.192C144.441 172.171 142.425 171.403 140.868 169.888C139.31 168.373 138.532 166.411 138.532 164C138.532 161.675 139.278 159.723 140.772 158.144C142.286 156.565 144.249 155.776 146.66 155.776ZM146.66 157.92C145.081 157.92 143.758 158.411 142.692 159.392C141.646 160.373 141.081 161.568 140.996 162.976H152.036C152.078 162.421 151.961 161.813 151.684 161.152C151.278 160.171 150.638 159.392 149.764 158.816C148.889 158.219 147.854 157.92 146.66 157.92Z" fill="black"/>
<path d="M171.302 172L168.678 167.968C167.867 166.709 167.206 165.877 166.694 165.472C166.203 165.067 165.414 164.864 164.326 164.864H161.894V172H159.558V156H161.894V162.624H163.974C165.062 162.624 165.851 162.421 166.342 162.016C166.854 161.611 167.515 160.779 168.326 159.52L170.63 156H173.254L170.246 160.544C169.627 161.483 169.105 162.187 168.678 162.656C168.273 163.125 167.835 163.467 167.366 163.68C167.942 163.851 168.454 164.181 168.902 164.672C169.371 165.163 169.937 165.92 170.598 166.944L173.894 172H171.302Z" fill="black"/>
<path d="M184.297 158.208V172H181.961V158.208H176.105V156H190.153V158.208H184.297Z" fill="black"/>
<path d="M196.64 161.184H202.144C204.427 161.184 206.048 161.707 207.008 162.752C207.989 163.797 208.48 165.067 208.48 166.56C208.48 167.264 208.373 167.915 208.16 168.512C207.968 169.109 207.648 169.685 207.2 170.24C206.752 170.773 206.091 171.2 205.216 171.52C204.363 171.84 203.339 172 202.144 172H194.304V156H196.64V161.184ZM212.8 172H210.464V156H212.8V172ZM196.608 169.824H202.336C204.875 169.824 206.144 168.736 206.144 166.56C206.144 164.427 204.875 163.36 202.336 163.36H196.608V169.824Z" fill="black"/>
<path d="M45.3969 107.376C48.7675 107.376 51.5835 108.624 53.8449 111.12L52.2129 112.592C50.3569 110.672 48.0849 109.712 45.3969 109.712C42.9009 109.712 40.7889 110.587 39.0609 112.336C37.3542 114.064 36.5009 116.219 36.5009 118.8C36.5009 121.381 37.3542 123.547 39.0609 125.296C40.7889 127.024 42.9009 127.888 45.3969 127.888C48.1275 127.888 50.3995 126.928 52.2129 125.008L53.8449 126.544C51.6049 128.997 48.7889 130.224 45.3969 130.224C42.2395 130.224 39.5515 129.115 37.3329 126.896C35.1142 124.656 34.0049 121.957 34.0049 118.8C34.0049 115.643 35.1142 112.955 37.3329 110.736C39.5515 108.496 42.2395 107.376 45.3969 107.376Z" stroke="black" stroke-width="2" mask="url(#path-1-inside-1_317_121)"/>
<path d="M74.8771 130H72.5411V117.904L66.6531 124.592L60.7651 117.904V130H58.4291V114H59.8371L66.6531 121.744L73.4691 114H74.8771V130Z" stroke="black" stroke-width="2" mask="url(#path-1-inside-1_317_121)"/>
<path d="M88.0361 113.776C90.3188 113.776 92.2601 114.587 93.8601 116.208C95.4601 117.808 96.2601 119.739 96.2601 122C96.2601 124.261 95.4601 126.192 93.8601 127.792C92.2601 129.392 90.3188 130.192 88.0361 130.192C85.7535 130.192 83.8121 129.392 82.2121 127.792C80.6335 126.192 79.8441 124.261 79.8441 122C79.8441 119.717 80.6441 117.776 82.2441 116.176C83.8441 114.576 85.7748 113.776 88.0361 113.776ZM88.0041 116.016C86.4041 116.016 85.0281 116.592 83.8761 117.744C82.7241 118.875 82.1481 120.293 82.1481 122C82.1481 123.707 82.7135 125.125 83.8441 126.256C84.9961 127.387 86.3828 127.952 88.0041 127.952C89.6255 127.952 91.0121 127.387 92.1641 126.256C93.3161 125.125 93.8921 123.707 93.8921 122C93.8921 120.293 93.3161 118.875 92.1641 117.744C91.0121 116.592 89.6255 116.016 88.0041 116.016Z" stroke="black" stroke-width="2" mask="url(#path-1-inside-1_317_121)"/>
<path d="M107.172 116.208V130H104.836V116.208H98.9801V114H113.028V116.208H107.172Z" stroke="black" stroke-width="2" mask="url(#path-1-inside-1_317_121)"/>
<path d="M125.595 113.776C127.856 113.776 129.755 114.576 131.291 116.176C132.827 117.776 133.595 119.717 133.595 122C133.595 124.283 132.827 126.224 131.291 127.824C129.755 129.403 127.856 130.192 125.595 130.192C124.315 130.192 123.142 129.883 122.075 129.264C121.03 128.624 120.23 127.781 119.675 126.736V135.888H117.339V114H119.003L119.099 117.616C119.718 116.464 120.603 115.536 121.755 114.832C122.907 114.128 124.187 113.776 125.595 113.776ZM125.403 116.016C123.782 116.016 122.395 116.592 121.243 117.744C120.091 118.875 119.515 120.293 119.515 122C119.515 123.707 120.091 125.136 121.243 126.288C122.395 127.419 123.782 127.984 125.403 127.984C127.003 127.984 128.379 127.419 129.531 126.288C130.683 125.136 131.259 123.707 131.259 122C131.259 120.293 130.683 118.875 129.531 117.744C128.379 116.592 127.003 116.016 125.403 116.016Z" stroke="black" stroke-width="2" mask="url(#path-1-inside-1_317_121)"/>
<path d="M145.753 113.776C147.481 113.776 148.964 114.192 150.201 115.024C151.439 115.856 152.356 116.997 152.953 118.448C153.209 119.067 153.359 119.781 153.401 120.592C153.465 121.403 153.412 122.053 153.241 122.544H139.993C139.993 124.229 140.548 125.573 141.657 126.576C142.788 127.557 144.239 128.059 146.009 128.08C148.036 128.08 149.881 127.504 151.545 126.352L152.793 127.76C150.724 129.381 148.463 130.192 146.009 130.192C143.535 130.171 141.519 129.403 139.961 127.888C138.404 126.373 137.625 124.411 137.625 122C137.625 119.675 138.372 117.723 139.865 116.144C141.38 114.565 143.343 113.776 145.753 113.776ZM145.753 115.92C144.175 115.92 142.852 116.411 141.785 117.392C140.74 118.373 140.175 119.568 140.089 120.976H151.129C151.172 120.421 151.055 119.813 150.777 119.152C150.372 118.171 149.732 117.392 148.857 116.816C147.983 116.219 146.948 115.92 145.753 115.92Z" stroke="black" stroke-width="2" mask="url(#path-1-inside-1_317_121)"/>
<path d="M164.453 116.208V130H162.117V116.208H156.261V114H170.309V116.208H164.453Z" stroke="black" stroke-width="2" mask="url(#path-1-inside-1_317_121)"/>
<path d="M176.796 119.184H182.3C184.583 119.184 186.204 119.707 187.164 120.752C188.146 121.797 188.636 123.067 188.636 124.56C188.636 125.264 188.53 125.915 188.316 126.512C188.124 127.109 187.804 127.685 187.356 128.24C186.908 128.773 186.247 129.2 185.372 129.52C184.519 129.84 183.495 130 182.3 130H174.46V114H176.796V119.184ZM176.764 127.824H182.492C185.031 127.824 186.3 126.736 186.3 124.56C186.3 122.427 185.031 121.36 182.492 121.36H176.764V127.824Z" stroke="black" stroke-width="2" mask="url(#path-1-inside-1_317_121)"/>
<path d="M203.585 114H211.969C213.719 114 215.009 114.373 215.841 115.12C216.695 115.867 217.121 116.869 217.121 118.128C217.121 119.92 216.332 121.083 214.753 121.616C216.823 122.128 217.857 123.408 217.857 125.456C217.857 126.971 217.388 128.112 216.449 128.88C215.511 129.627 214.039 130 212.033 130H203.585V114ZM205.889 115.984V120.816H211.841C213.783 120.816 214.753 120.016 214.753 118.416C214.753 116.795 213.772 115.984 211.809 115.984H205.889ZM205.889 128.016H212.065C214.348 128.016 215.489 127.109 215.489 125.296C215.489 123.504 214.348 122.608 212.065 122.608L205.889 122.576V128.016Z" stroke="black" stroke-width="2" mask="url(#path-1-inside-1_317_121)"/>
<path d="M230.13 113.776C232.69 113.776 234.791 114.768 236.434 116.752L235.026 118.256C233.661 116.763 232.029 116.016 230.13 116.016C228.509 116.016 227.122 116.592 225.97 117.744C224.839 118.875 224.274 120.293 224.274 122C224.274 123.707 224.839 125.125 225.97 126.256C227.122 127.387 228.509 127.952 230.13 127.952C232.05 127.952 233.682 127.216 235.026 125.744L236.434 127.248C234.791 129.211 232.69 130.192 230.13 130.192C227.847 130.192 225.906 129.392 224.306 127.792C222.727 126.192 221.938 124.261 221.938 122C221.938 119.717 222.738 117.776 224.338 116.176C225.938 114.576 227.869 113.776 230.13 113.776Z" stroke="black" stroke-width="2" mask="url(#path-1-inside-1_317_121)"/>
<path d="M248.441 113.776C250.169 113.776 251.652 114.192 252.889 115.024C254.126 115.856 255.044 116.997 255.641 118.448C255.897 119.067 256.046 119.781 256.089 120.592C256.153 121.403 256.1 122.053 255.929 122.544H242.681C242.681 124.229 243.236 125.573 244.345 126.576C245.476 127.557 246.926 128.059 248.697 128.08C250.724 128.08 252.569 127.504 254.233 126.352L255.481 127.76C253.412 129.381 251.15 130.192 248.697 130.192C246.222 130.171 244.206 129.403 242.649 127.888C241.092 126.373 240.313 124.411 240.313 122C240.313 119.675 241.06 117.723 242.553 116.144C244.068 114.565 246.03 113.776 248.441 113.776ZM248.441 115.92C246.862 115.92 245.54 116.411 244.473 117.392C243.428 118.373 242.862 119.568 242.777 120.976H253.817C253.86 120.421 253.742 119.813 253.465 119.152C253.06 118.171 252.42 117.392 251.545 116.816C250.67 116.219 249.636 115.92 248.441 115.92Z" stroke="black" stroke-width="2" mask="url(#path-1-inside-1_317_121)"/>
<path d="M91.7376 172H89.4336V158.208H79.5776V172H77.2416V156H91.7376V172Z" stroke="black" stroke-width="2" mask="url(#path-1-inside-1_317_121)"/>
<path d="M106.095 155.776C108.356 155.776 110.255 156.576 111.791 158.176C113.327 159.776 114.095 161.717 114.095 164C114.095 166.283 113.327 168.224 111.791 169.824C110.255 171.403 108.356 172.192 106.095 172.192C104.815 172.192 103.642 171.883 102.575 171.264C101.53 170.624 100.73 169.781 100.175 168.736V177.888H97.8391V156H99.5031L99.5991 159.616C100.218 158.464 101.103 157.536 102.255 156.832C103.407 156.128 104.687 155.776 106.095 155.776ZM105.903 158.016C104.282 158.016 102.895 158.592 101.743 159.744C100.591 160.875 100.015 162.293 100.015 164C100.015 165.707 100.591 167.136 101.743 168.288C102.895 169.419 104.282 169.984 105.903 169.984C107.503 169.984 108.879 169.419 110.031 168.288C111.183 167.136 111.759 165.707 111.759 164C111.759 162.293 111.183 160.875 110.031 159.744C108.879 158.592 107.503 158.016 105.903 158.016Z" stroke="black" stroke-width="2" mask="url(#path-1-inside-1_317_121)"/>
<path d="M126.317 155.776C128.6 155.776 130.541 156.587 132.141 158.208C133.741 159.808 134.541 161.739 134.541 164C134.541 166.261 133.741 168.192 132.141 169.792C130.541 171.392 128.6 172.192 126.317 172.192C124.035 172.192 122.093 171.392 120.493 169.792C118.915 168.192 118.125 166.261 118.125 164C118.125 161.717 118.925 159.776 120.525 158.176C122.125 156.576 124.056 155.776 126.317 155.776ZM126.285 158.016C124.685 158.016 123.309 158.592 122.157 159.744C121.005 160.875 120.429 162.293 120.429 164C120.429 165.707 120.995 167.125 122.125 168.256C123.277 169.387 124.664 169.952 126.285 169.952C127.907 169.952 129.293 169.387 130.445 168.256C131.597 167.125 132.173 165.707 132.173 164C132.173 162.293 131.597 160.875 130.445 159.744C129.293 158.592 127.907 158.016 126.285 158.016Z" stroke="black" stroke-width="2" mask="url(#path-1-inside-1_317_121)"/>
<path d="M146.66 155.776C148.388 155.776 149.87 156.192 151.108 157.024C152.345 157.856 153.262 158.997 153.86 160.448C154.116 161.067 154.265 161.781 154.308 162.592C154.372 163.403 154.318 164.053 154.148 164.544H140.9C140.9 166.229 141.454 167.573 142.564 168.576C143.694 169.557 145.145 170.059 146.916 170.08C148.942 170.08 150.788 169.504 152.452 168.352L153.7 169.76C151.63 171.381 149.369 172.192 146.916 172.192C144.441 172.171 142.425 171.403 140.868 169.888C139.31 168.373 138.532 166.411 138.532 164C138.532 161.675 139.278 159.723 140.772 158.144C142.286 156.565 144.249 155.776 146.66 155.776ZM146.66 157.92C145.081 157.92 143.758 158.411 142.692 159.392C141.646 160.373 141.081 161.568 140.996 162.976H152.036C152.078 162.421 151.961 161.813 151.684 161.152C151.278 160.171 150.638 159.392 149.764 158.816C148.889 158.219 147.854 157.92 146.66 157.92Z" stroke="black" stroke-width="2" mask="url(#path-1-inside-1_317_121)"/>
<path d="M171.302 172L168.678 167.968C167.867 166.709 167.206 165.877 166.694 165.472C166.203 165.067 165.414 164.864 164.326 164.864H161.894V172H159.558V156H161.894V162.624H163.974C165.062 162.624 165.851 162.421 166.342 162.016C166.854 161.611 167.515 160.779 168.326 159.52L170.63 156H173.254L170.246 160.544C169.627 161.483 169.105 162.187 168.678 162.656C168.273 163.125 167.835 163.467 167.366 163.68C167.942 163.851 168.454 164.181 168.902 164.672C169.371 165.163 169.937 165.92 170.598 166.944L173.894 172H171.302Z" stroke="black" stroke-width="2" mask="url(#path-1-inside-1_317_121)"/>
<path d="M184.297 158.208V172H181.961V158.208H176.105V156H190.153V158.208H184.297Z" stroke="black" stroke-width="2" mask="url(#path-1-inside-1_317_121)"/>
<path d="M196.64 161.184H202.144C204.427 161.184 206.048 161.707 207.008 162.752C207.989 163.797 208.48 165.067 208.48 166.56C208.48 167.264 208.373 167.915 208.16 168.512C207.968 169.109 207.648 169.685 207.2 170.24C206.752 170.773 206.091 171.2 205.216 171.52C204.363 171.84 203.339 172 202.144 172H194.304V156H196.64V161.184ZM212.8 172H210.464V156H212.8V172ZM196.608 169.824H202.336C204.875 169.824 206.144 168.736 206.144 166.56C206.144 164.427 204.875 163.36 202.336 163.36H196.608V169.824Z" stroke="black" stroke-width="2" mask="url(#path-1-inside-1_317_121)"/>
<path d="M290 145C290 225.081 225.081 290 145 290C64.9187 290 0 225.081 0 145C0 64.9187 64.9187 0 145 0C225.081 0 290 64.9187 290 145Z" stroke="black" stroke-width="2" mask="url(#path-1-inside-1_317_121)"/>
</svg>
