<svg width="183" height="168" viewBox="0 0 183 168" fill="none" xmlns="http://www.w3.org/2000/svg">
<path d="M16.0625 94.7642V159.156C16.0625 161.154 16.856 163.069 18.2684 164.482C19.6807 165.894 21.5963 166.688 23.5938 166.688H159.156C161.154 166.688 163.069 165.894 164.482 164.482C165.894 163.069 166.688 161.154 166.688 159.156V94.7642" stroke="#1C1F33" stroke-width="2" stroke-linecap="round" stroke-linejoin="round"/>
<path d="M21.7109 1H161.039C162.673 1.01345 164.259 1.55131 165.564 2.53432C166.869 3.51734 167.824 4.89354 168.288 6.46016L181.75 53.7188H1L14.4621 6.46016C14.926 4.89354 15.8808 3.51734 17.1858 2.53432C18.4909 1.55131 20.0771 1.01345 21.7109 1V1Z" stroke="#1C1F33" stroke-width="2" stroke-linecap="round" stroke-linejoin="round"/>
<path d="M61.25 53.7188V68.7812C61.25 76.7709 58.0761 84.4333 52.4266 90.0828C46.7771 95.7324 39.1146 98.9062 31.125 98.9062C23.1354 98.9062 15.4729 95.7324 9.82341 90.0828C4.17387 84.4333 1 76.7709 1 68.7812V53.7188" stroke="#1C1F33" stroke-width="2" stroke-linecap="round" stroke-linejoin="round"/>
<path d="M121.5 53.7188V68.7812C121.5 76.7709 118.326 84.4333 112.677 90.0828C107.027 95.7324 99.3646 98.9062 91.375 98.9062C83.3854 98.9062 75.7229 95.7324 70.0734 90.0828C64.4239 84.4333 61.25 76.7709 61.25 68.7812V53.7188" stroke="#1C1F33" stroke-width="2" stroke-linecap="round" stroke-linejoin="round"/>
<path d="M181.75 53.7188V68.7812C181.75 76.7709 178.576 84.4333 172.927 90.0828C167.277 95.7324 159.615 98.9062 151.625 98.9062C143.635 98.9062 135.973 95.7324 130.323 90.0828C124.674 84.4333 121.5 76.7709 121.5 68.7812V53.7188" stroke="#1C1F33" stroke-width="2" stroke-linecap="round" stroke-linejoin="round"/>
</svg>
