<svg width="308" height="73" viewBox="0 0 308 73" fill="none" xmlns="http://www.w3.org/2000/svg">
<path d="M63.1919 13.9973L63.9267 13.3159L63.2439 12.5826C56.1462 4.95908 47.4346 1.12799 37.168 1.12799C27.4304 1.12799 19.111 4.59379 12.2672 11.5026C5.42348 18.3471 1.992 26.6654 1.992 36.4C1.992 46.1351 5.42375 54.4841 12.2655 61.3917L12.2689 61.3951C19.1138 68.24 27.4327 71.672 37.168 71.672C47.4346 71.672 56.1462 67.8409 63.2439 60.2174L63.9267 59.484L63.1919 58.8027L52.6319 49.0107L51.9603 48.3879L51.2811 49.0025C47.4467 52.4716 42.7633 54.216 37.168 54.216C32.2993 54.216 28.306 52.584 25.1137 49.3315C21.9351 46.093 20.312 41.816 20.312 36.4C20.312 30.9839 21.9351 26.707 25.1137 23.4685L25.1137 23.4685L25.1201 23.4619C28.3138 20.1476 32.3052 18.488 37.168 18.488C42.6912 18.488 47.3767 20.2592 51.2805 23.797L51.9598 24.4126L52.6319 23.7893L63.1919 13.9973ZM118.394 71H119.394V70V22V21H118.394H108.602H107.769L107.618 21.8193L107.067 24.823C103.239 21.8242 98.7124 20.328 93.5298 20.328C86.5394 20.328 80.7303 22.8386 76.1809 27.8563L76.1805 27.8568C71.7117 32.7925 69.4898 38.862 69.4898 46C69.4898 53.138 71.7117 59.2075 76.1804 64.1432L76.1854 64.1486C80.7362 69.1009 86.544 71.576 93.5298 71.576C98.7129 71.576 103.218 70.1051 107 67.15L107.622 70.2L107.785 71H108.602H118.394ZM168.805 14.8427L168.806 14.8425C172.079 11.6377 173.714 7.63222 173.714 2.89599V1.89599H172.714H162.538H161.538V2.89599C161.538 4.16122 161.103 5.21568 160.21 6.11418C159.315 6.9513 158.254 7.36799 156.97 7.36799C155.611 7.36799 154.521 6.94361 153.634 6.11415C152.741 5.21565 152.306 4.16122 152.306 2.89599V1.89599H151.306H141.13H140.13V2.89599C140.13 7.63222 141.765 11.6377 145.038 14.8425L145.046 14.85C148.312 17.9797 152.307 19.544 156.97 19.544C161.633 19.544 165.601 17.9793 168.805 14.8427ZM179.434 71H180.434V70V22V21H179.434H169.642H169.182L168.883 21.3494L150.002 43.3914V22V21H149.002H134.026H133.026V22V70V71H134.026H143.818H144.278L144.577 70.6505L163.458 48.6086V70V71H164.458H179.434ZM218.769 71H219.769V70V37.496H232.209H233.209V36.496V22V21H232.209H190.257H189.257V22V36.496V37.496H190.257H202.793V70V71H203.793H218.769ZM241.87 70V71H242.87H266.102C270.349 71 274.032 70.4125 277.122 69.2032C280.187 68.0039 282.519 66.3663 284.009 64.2375C285.401 62.2489 286.386 60.293 286.935 58.3707C287.474 56.4838 287.742 54.5029 287.742 52.432C287.742 50.3611 287.474 48.3802 286.935 46.4933C286.386 44.571 285.401 42.6151 284.009 40.6265C282.519 38.4977 280.187 36.8601 277.122 35.6607C274.032 34.4515 270.349 33.864 266.102 33.864H258.846V22V21H257.846H242.87H241.87V22V70ZM305.75 71H306.75V70V22V21H305.75H290.774H289.774V22V70V71H290.774H305.75ZM95.0658 55.08C92.769 55.08 90.7731 54.287 89.0344 52.6668C87.3433 51.0287 86.4658 48.8418 86.4658 46C86.4658 43.1546 87.3455 40.9658 89.0408 39.327C90.7832 37.6426 92.7773 36.824 95.0658 36.824C97.3543 36.824 99.3483 37.6426 101.091 39.327C102.786 40.9658 103.666 43.1546 103.666 46C103.666 48.8418 102.788 51.0287 101.097 52.6668C99.3584 54.287 97.3625 55.08 95.0658 55.08ZM267.734 54.984H258.846V49.976H267.734C268.995 49.976 269.754 50.2436 270.188 50.6067C270.588 50.9414 270.862 51.4854 270.862 52.432C270.862 53.4194 270.582 53.99 270.178 54.338C269.744 54.7107 268.989 54.984 267.734 54.984Z" stroke="#4964D0" stroke-width="2"/>
</svg>
