<svg width="42" height="31" viewBox="0 0 42 31" fill="none" xmlns="http://www.w3.org/2000/svg">
<path d="M14.1982 0C12.7558 0 11.5839 1.15143 11.5839 2.61286V12.6657C11.5839 12.7543 11.5388 13.5514 11.0881 14.3043C10.7726 14.88 10.1416 15.5 8.42876 15.5C6.67089 15.5 6.08494 14.88 5.72435 14.3043C5.31868 13.5514 5.27361 12.7543 5.27361 12.6657V2.61286C5.27361 1.15143 4.05662 0 2.61427 0C1.17191 0 0 1.15143 0 2.61286V12.6657C0 13.02 0.0450735 14.7471 1.03669 16.5629C2.43397 19.22 5.04824 20.6814 8.42876 20.6814C11.7642 20.6814 14.3785 19.22 15.8208 16.5629C16.7674 14.7471 16.8125 13.02 16.8125 12.6657V2.61286C16.8125 1.15143 15.6405 0 14.1982 0Z" fill="#7845CB"/>
<path d="M23.0382 31C24.4806 31 25.6976 29.8486 25.6976 28.4314V19.2643C27.2301 20.15 29.033 20.6814 30.9261 20.6814C36.7406 20.6814 41.4733 16.0314 41.4733 10.3186C41.4733 4.65 36.7406 0 30.9261 0C28.9429 0 27.0498 0.575713 25.4271 1.50571C25.0215 0.62 24.12 0 23.0382 0C21.5959 0 20.424 1.15143 20.424 2.56857V28.4314C20.424 29.8486 21.5959 31 23.0382 31ZM30.9261 5.18143C33.8559 5.18143 36.1997 7.48428 36.1997 10.3186C36.1997 13.1971 33.8559 15.5 30.9261 15.5C28.0414 15.5 25.6976 13.1971 25.6976 10.3186C25.6976 7.48428 28.0414 5.18143 30.9261 5.18143Z" fill="#7845CB"/>
</svg>
