<svg width="120" height="31" viewBox="0 0 120 31" fill="none" xmlns="http://www.w3.org/2000/svg">
<path d="M14.1982 0C12.7558 0 11.5839 1.15143 11.5839 2.61286V12.6657C11.5839 12.7543 11.5388 13.5514 11.0881 14.3043C10.7726 14.88 10.1416 15.5 8.42876 15.5C6.67089 15.5 6.08494 14.88 5.72435 14.3043C5.31868 13.5514 5.27361 12.7543 5.27361 12.6657V2.61286C5.27361 1.15143 4.05662 0 2.61427 0C1.17191 0 0 1.15143 0 2.61286V12.6657C0 13.02 0.0450735 14.7471 1.03669 16.5629C2.43397 19.22 5.04824 20.6814 8.42876 20.6814C11.7642 20.6814 14.3785 19.22 15.8208 16.5629C16.7674 14.7471 16.8125 13.02 16.8125 12.6657V2.61286C16.8125 1.15143 15.6405 0 14.1982 0Z" fill="#7845CB"/>
<path d="M23.0382 31C24.4806 31 25.6976 29.8486 25.6976 28.4314V19.2643C27.2301 20.15 29.033 20.6814 30.9261 20.6814C36.7406 20.6814 41.4733 16.0314 41.4733 10.3186C41.4733 4.65 36.7406 0 30.9261 0C28.9429 0 27.0498 0.575713 25.4271 1.50571C25.0215 0.62 24.12 0 23.0382 0C21.5959 0 20.424 1.15143 20.424 2.56857V28.4314C20.424 29.8486 21.5959 31 23.0382 31ZM30.9261 5.18143C33.8559 5.18143 36.1997 7.48428 36.1997 10.3186C36.1997 13.1971 33.8559 15.5 30.9261 15.5C28.0414 15.5 25.6976 13.1971 25.6976 10.3186C25.6976 7.48428 28.0414 5.18143 30.9261 5.18143Z" fill="#7845CB"/>
<path d="M70.7205 0.177142C70.405 0.0885703 70.1345 0.0442851 69.819 0.0442851C68.7372 0.0442851 67.7456 0.664285 67.385 1.72714L64.32 10.2743L61.255 1.72714C60.8944 0.70857 59.9479 0.0442851 58.8661 0C58.7309 0 58.6858 0 58.6858 0C57.6041 0.0442851 56.6124 0.62 56.2519 1.72714L53.2319 10.2743L50.1669 1.72714C49.8063 0.664285 48.8147 0.0442851 47.7329 0.0442851C47.4174 0.0442851 47.1019 0.0885703 46.8315 0.177142C45.7497 0.531428 45.0736 1.50571 45.0736 2.61286C45.0736 2.87857 45.1187 3.18857 45.2088 3.45428L50.7529 18.9543C51.1135 19.9729 52.1051 20.6814 53.2319 20.6814C54.3588 20.6814 55.3504 19.9729 55.711 18.9543L58.776 10.3629L61.841 18.9543C62.2016 19.9729 63.1932 20.6814 64.32 20.6814C65.4469 20.6814 66.4385 19.9729 66.7991 18.9543L72.3431 3.45428C72.4333 3.18857 72.4783 2.87857 72.4783 2.61286C72.4783 1.55 71.8022 0.531428 70.7205 0.177142Z" fill="#1E1E1E"/>
<path d="M84.8032 0C79.0337 0 74.301 4.65 74.301 10.3629C74.301 16.0314 79.0337 20.6814 84.8032 20.6814C90.6176 20.6814 95.3504 16.0314 95.3504 10.3629C95.3504 4.65 90.6176 0 84.8032 0ZM84.8032 15.5C81.9184 15.5 79.5746 13.1971 79.5746 10.3629C79.5746 7.48429 81.9184 5.18143 84.8032 5.18143C87.7329 5.18143 90.0768 7.48429 90.0768 10.3629C90.0768 13.1971 87.7329 15.5 84.8032 15.5Z" fill="#1E1E1E"/>
<path d="M109.453 0C103.683 0 98.9506 4.65 98.9506 10.3629C98.9506 16.0314 103.683 20.6814 109.453 20.6814C115.267 20.6814 120 16.0314 120 10.3629C120 4.65 115.267 0 109.453 0ZM109.453 15.5C106.568 15.5 104.224 13.1971 104.224 10.3629C104.224 7.48429 106.568 5.18143 109.453 5.18143C112.383 5.18143 114.726 7.48429 114.726 10.3629C114.726 13.1971 112.383 15.5 109.453 15.5Z" fill="#1E1E1E"/>
</svg>
