<svg width="149" height="37" viewBox="0 0 149 37" fill="none" xmlns="http://www.w3.org/2000/svg">
<path d="M13.9886 0C12.5675 0 11.4129 1.15461 11.4129 2.62009V12.7008C11.4129 12.7896 11.3685 13.5889 10.9244 14.3439C10.6136 14.9212 9.99186 15.5429 8.30435 15.5429C6.57242 15.5429 5.99512 14.9212 5.63985 14.3439C5.24018 13.5889 5.19577 12.7896 5.19577 12.7008V2.62009C5.19577 1.15461 3.99674 0 2.57568 0C1.15461 0 0 1.15461 0 2.62009V12.7008C0 13.056 0.0444082 14.788 1.02139 16.6087C2.39805 19.2732 4.97373 20.7387 8.30435 20.7387C11.5906 20.7387 14.1662 19.2732 15.5873 16.6087C16.5199 14.788 16.5643 13.056 16.5643 12.7008V2.62009C16.5643 1.15461 15.4097 0 13.9886 0Z" fill="#7845CB"/>
<path d="M22.6982 31.0858C24.1192 31.0858 25.3183 29.9312 25.3183 28.5101V19.3176C26.8281 20.2058 28.6045 20.7387 30.4696 20.7387C36.1983 20.7387 40.8612 16.0758 40.8612 10.3471C40.8612 4.66287 36.1983 0 30.4696 0C28.5157 0 26.6505 0.577307 25.0518 1.50988C24.6521 0.621716 23.764 0 22.6982 0C21.2771 0 20.1225 1.15461 20.1225 2.57568V28.5101C20.1225 29.9312 21.2771 31.0858 22.6982 31.0858ZM30.4696 5.19577C33.3562 5.19577 35.6654 7.505 35.6654 10.3471C35.6654 13.2337 33.3562 15.5429 30.4696 15.5429C27.6275 15.5429 25.3183 13.2337 25.3183 10.3471C25.3183 7.505 27.6275 5.19577 30.4696 5.19577Z" fill="#7845CB"/>
<path d="M69.6766 0.177632C69.3657 0.0888154 69.0993 0.0444077 68.7884 0.0444077C67.7226 0.0444077 66.7456 0.666123 66.3904 1.73192L63.3706 10.3027L60.3508 1.73192C59.9956 0.710531 59.063 0.0444077 57.9972 0C57.864 0 57.8196 0 57.8196 0C56.7538 0.0444077 55.7768 0.621716 55.4215 1.73192L52.4462 10.3027L49.4264 1.73192C49.0711 0.666123 48.0942 0.0444077 47.0284 0.0444077C46.7175 0.0444077 46.4066 0.0888154 46.1402 0.177632C45.0744 0.532899 44.4083 1.50988 44.4083 2.62009C44.4083 2.88654 44.4527 3.19739 44.5415 3.46384L50.0037 19.0067C50.359 20.0281 51.336 20.7387 52.4462 20.7387C53.5564 20.7387 54.5334 20.0281 54.8886 19.0067L57.9084 10.3915L60.9281 19.0067C61.2834 20.0281 62.2604 20.7387 63.3706 20.7387C64.4808 20.7387 65.4578 20.0281 65.813 19.0067L71.2753 3.46384C71.3641 3.19739 71.4085 2.88654 71.4085 2.62009C71.4085 1.55429 70.7424 0.532899 69.6766 0.177632Z" fill="white"/>
<path d="M83.5514 0C77.8671 0 73.2043 4.66287 73.2043 10.3915C73.2043 16.0758 77.8671 20.7387 83.5514 20.7387C89.28 20.7387 93.9429 16.0758 93.9429 10.3915C93.9429 4.66287 89.28 0 83.5514 0ZM83.5514 15.5429C80.7093 15.5429 78.4 13.2337 78.4 10.3915C78.4 7.505 80.7093 5.19577 83.5514 5.19577C86.4379 5.19577 88.7471 7.505 88.7471 10.3915C88.7471 13.2337 86.4379 15.5429 83.5514 15.5429Z" fill="white"/>
<path d="M107.837 0C102.153 0 97.49 4.66287 97.49 10.3915C97.49 16.0758 102.153 20.7387 107.837 20.7387C113.566 20.7387 118.229 16.0758 118.229 10.3915C118.229 4.66287 113.566 0 107.837 0ZM107.837 15.5429C104.995 15.5429 102.686 13.2337 102.686 10.3915C102.686 7.505 104.995 5.19577 107.837 5.19577C110.724 5.19577 113.033 7.505 113.033 10.3915C113.033 13.2337 110.724 15.5429 107.837 15.5429Z" fill="white"/>
<path d="M34.1697 32.8993C34.3671 32.8993 34.5398 32.7883 34.6385 32.6033L36.2421 29.7044V33.5408C36.2421 33.7998 36.4518 34.0219 36.7232 34.0219C36.9699 34.0219 37.192 33.7998 37.192 33.5408V28.1378C37.192 27.8417 36.9699 27.6197 36.6739 27.6197C36.4395 27.6197 36.2915 27.743 36.1804 27.9404L34.1574 31.6288L32.1344 27.9404C32.0233 27.743 31.8753 27.6197 31.6409 27.6197C31.3449 27.6197 31.1228 27.8417 31.1228 28.1378V33.5408C31.1228 33.7998 31.3325 34.0219 31.5916 34.0219C31.8506 34.0219 32.0727 33.7998 32.0727 33.5408V29.7044L33.6763 32.6033C33.775 32.7883 33.9477 32.8993 34.1451 32.8993H34.1697Z" fill="#B8B8B8"/>
<path d="M42.0849 30.4569C41.7025 30.3459 41.2831 30.2842 40.839 30.2842C39.3834 30.2842 38.6679 30.901 38.6679 32.1099V32.1592C38.6679 33.2694 39.2847 34.0219 40.5553 34.0219C41.2214 34.0219 41.7765 33.7998 42.2452 33.3681C42.4303 33.7505 42.7633 33.9849 43.1704 33.9849C43.4418 33.9849 43.7255 33.8739 43.7255 33.5655C43.7255 33.3558 43.6022 33.146 43.3678 33.146C43.3184 33.146 43.3061 33.1584 43.2691 33.1584C43.1211 33.1584 43.0471 33.035 43.0471 32.7883V30.0745C43.0471 28.4462 42.4303 27.5827 40.8883 27.5827C40.0372 27.5827 39.112 27.8171 39.1613 28.3845C39.1737 28.5695 39.2723 28.7916 39.5067 28.7916C39.6424 28.7916 39.7904 28.7052 39.8275 28.6929C40.0988 28.5449 40.3332 28.4338 40.765 28.4338C41.6531 28.4338 42.0849 28.8532 42.0849 29.7537V30.4569ZM40.8266 31.0983C41.1967 31.0983 41.6778 31.16 42.0849 31.2834V32.6156C41.6531 32.9857 41.2337 33.1584 40.7033 33.1584C39.8768 33.1584 39.6177 32.7513 39.6177 32.1715V32.1222C39.6177 31.5671 39.8151 31.0983 40.8266 31.0983Z" fill="#B8B8B8"/>
<path d="M47.3451 34.0095C48.9117 34.0095 49.4051 32.9857 49.4051 31.5177V29.9141C49.4051 28.5325 48.739 27.5827 47.4437 27.5827C46.8023 27.5827 46.1978 27.8294 45.6427 28.1254C45.5194 27.9527 45.359 27.8294 45.1616 27.8294C44.9519 27.8294 44.7299 28.0021 44.7299 28.2611C44.7299 28.3722 44.7669 28.4338 44.8163 28.5079C44.9643 28.7299 45.0136 28.9643 45.0136 29.3713V36.1066C45.0136 36.3656 45.1863 36.5754 45.4947 36.5754C45.8031 36.5754 45.9758 36.3656 45.9758 36.1066V33.7752C46.4199 33.9232 46.9256 34.0095 47.3451 34.0095ZM45.9758 29.3713C45.9758 29.2233 45.9511 29.0506 45.9141 28.8656C46.3335 28.6065 46.827 28.4462 47.2464 28.4462C48.0605 28.4462 48.4429 28.9519 48.4429 29.9141V31.5177C48.4429 32.665 48.1222 33.1707 47.2217 33.1707C46.9133 33.1707 46.3705 33.0967 45.9758 32.9117V29.3713Z" fill="#B8B8B8"/>
<path d="M51.8172 33.5408V31.1107H52.4093L54.1733 33.7875C54.272 33.9479 54.4077 34.0219 54.568 34.0219C54.8148 34.0219 55.0121 33.8615 55.0245 33.6148C55.0245 33.5285 54.9998 33.4051 54.9505 33.3311L53.2605 30.8269L54.9505 28.3228C54.9998 28.2488 55.0245 28.1254 55.0245 28.0391C55.0121 27.7924 54.8148 27.632 54.568 27.632C54.4077 27.632 54.272 27.706 54.1733 27.8664L52.5697 30.2965H51.8172V28.1008C51.8172 27.8417 51.6075 27.6197 51.3361 27.6197C51.0647 27.6197 50.855 27.8417 50.855 28.1008V33.5408C50.855 33.8122 51.0647 34.0219 51.3361 34.0219C51.6075 34.0219 51.8172 33.8122 51.8172 33.5408Z" fill="#B8B8B8"/>
<path d="M58.0928 33.1707C57.2046 33.1707 56.7482 32.7266 56.7482 32.0358V31.308C57.1799 31.3821 57.6363 31.4191 58.0064 31.4191C59.4744 31.4191 60.0911 30.7283 60.0911 29.5934C60.0911 28.3722 59.4127 27.5827 58.0434 27.5827C56.5755 27.5827 55.786 28.4832 55.786 29.6674V31.9742C55.786 33.1337 56.5878 34.0219 57.9817 34.0219C58.6479 34.0219 59.9801 33.8245 59.9801 33.2201C59.9801 32.998 59.7951 32.7883 59.5484 32.7883C59.462 32.7883 59.4003 32.813 59.3757 32.8253C58.9439 33.0227 58.6109 33.1707 58.0928 33.1707ZM59.1413 29.5934C59.1413 30.0991 58.9809 30.6049 58.0434 30.6049C57.7967 30.6049 57.2046 30.5802 56.7482 30.5186V29.581C56.7482 28.8903 57.2169 28.4585 58.0187 28.4585C58.7342 28.4585 59.1413 28.7916 59.1413 29.5934Z" fill="#B8B8B8"/>
<path d="M63.5651 28.6065H64.848C65.0947 28.6065 65.292 28.4092 65.292 28.1501C65.292 27.8911 65.0947 27.6937 64.848 27.6937H61.32C61.0733 27.6937 60.8759 27.8911 60.8759 28.1501C60.8759 28.4092 61.0733 28.6065 61.32 28.6065H62.6029V33.5408C62.6029 33.8122 62.8126 34.0219 63.084 34.0219C63.3554 34.0219 63.5651 33.8122 63.5651 33.5408V28.6065Z" fill="#B8B8B8"/>
<path d="M67.0462 34.0465C67.2436 34.0465 67.4286 33.9355 67.5396 33.7628L70.2658 29.3837V33.5408C70.2658 33.8122 70.4755 34.0465 70.7469 34.0465C71.0183 34.0465 71.228 33.8122 71.228 33.5408V28.1501C71.228 27.8417 71.0183 27.6073 70.7099 27.6073C70.5002 27.6073 70.3028 27.7184 70.2041 27.9034L67.4656 32.2702V28.1131C67.4656 27.8417 67.2436 27.6073 66.9722 27.6073C66.7008 27.6073 66.5034 27.8417 66.5034 28.1131V33.5038C66.5034 33.7998 66.7255 34.0465 67.0462 34.0465Z" fill="#B8B8B8"/>
<path d="M74.0069 33.5408V31.1107H76.622V33.5408C76.622 33.8122 76.8317 34.0219 77.1031 34.0219C77.3745 34.0219 77.5842 33.8122 77.5842 33.5408V28.1008C77.5842 27.8417 77.3745 27.6197 77.1031 27.6197C76.8317 27.6197 76.622 27.8417 76.622 28.1008V30.2965H74.0069V28.1008C74.0069 27.8417 73.7972 27.6197 73.5258 27.6197C73.2544 27.6197 73.0447 27.8417 73.0447 28.1008V33.5408C73.0447 33.8122 73.2544 34.0219 73.5258 34.0219C73.7972 34.0219 74.0069 33.8122 74.0069 33.5408Z" fill="#B8B8B8"/>
<path d="M80.3433 28.5572H82.6008C82.8475 28.5572 83.0449 28.3722 83.0449 28.1254C83.0449 27.8787 82.8351 27.6937 82.6008 27.6937H79.8252C79.5785 27.6937 79.3812 27.8787 79.3812 28.1254V33.5408C79.3812 33.8122 79.5909 34.0219 79.8623 34.0219C80.1336 34.0219 80.3433 33.8122 80.3433 33.5408V28.5572Z" fill="#B8B8B8"/>
<path d="M91.8263 27.6937H88.9891C88.804 27.6937 88.5573 27.8171 88.5203 28.1748L88.4093 30.6789C88.3476 31.8631 88.1503 32.7266 87.7679 33.109H87.5335C87.2621 33.109 87.0524 33.3187 87.0524 33.5901V35.1691C87.0524 35.4405 87.2621 35.6502 87.5335 35.6502C87.8049 35.6502 88.0146 35.4405 88.0146 35.1691V33.9232H92.1593V35.1691C92.1593 35.4405 92.369 35.6502 92.6404 35.6502C92.9118 35.6502 93.1215 35.4405 93.1215 35.1691V33.5901C93.1215 33.3187 92.9118 33.109 92.6404 33.109H92.3074V28.1748C92.3074 27.9157 92.0977 27.6937 91.8263 27.6937ZM89.3098 30.6789L89.3962 28.5079H91.3452V33.109H88.7547C89.1001 32.5416 89.2728 31.7028 89.3098 30.6789Z" fill="#B8B8B8"/>
<path d="M98.9697 33.5408V28.1748C98.9697 27.9157 98.76 27.6937 98.4886 27.6937H95.6514C95.4663 27.6937 95.2196 27.8171 95.1826 28.1748L94.8619 31.9865C94.8002 32.739 94.6029 33.0967 94.1588 33.0967C94.0724 33.0967 94.0724 33.0844 93.9984 33.0844C93.7764 33.0844 93.542 33.2201 93.542 33.5531C93.542 33.9725 93.9121 33.9849 94.2945 33.9849C95.269 33.9849 95.676 33.1584 95.7747 31.9125L96.0461 28.5079H98.0075V33.5408C98.0075 33.8122 98.2172 34.0219 98.4886 34.0219C98.76 34.0219 98.9697 33.8122 98.9697 33.5408Z" fill="#B8B8B8"/>
<path d="M104.489 34.0219C104.76 34.0219 104.97 33.7998 104.97 33.5408V28.1748C104.97 27.9157 104.76 27.6937 104.489 27.6937H102.589C101.22 27.6937 100.541 28.4338 100.541 29.507C100.541 30.4692 100.948 31.0983 101.923 31.308L100.566 33.3311C100.517 33.4051 100.492 33.5285 100.492 33.6148C100.504 33.8615 100.689 34.0219 100.948 34.0219C101.109 34.0219 101.232 33.9479 101.343 33.7875L102.922 31.3821H104.008V33.5408C104.008 33.7998 104.217 34.0219 104.489 34.0219ZM101.491 29.544C101.491 28.8409 101.886 28.5202 102.614 28.5202H104.008V30.5679H102.749C101.689 30.5679 101.491 30.0375 101.491 29.544Z" fill="#B8B8B8"/>
<path d="M110.14 28.0391V31.8261C110.14 33.0597 110.942 34.0219 112.447 34.0219C113.952 34.0219 114.753 33.0597 114.753 31.8261V30.1238C114.753 28.8903 113.964 27.9281 112.632 27.9281C111.941 27.9281 111.435 28.1871 111.102 28.6065V27.9774C111.102 26.3861 112.064 26.2751 112.595 26.2258C113.224 26.1764 114.47 26.0654 114.47 25.4363C114.47 25.1896 114.285 24.9922 114.038 24.9922C113.952 24.9922 113.89 25.0169 113.865 25.0292C113.026 25.4116 113.026 25.3253 112.582 25.3746C110.868 25.5473 110.14 26.4725 110.14 28.0391ZM112.447 33.1337C111.558 33.1337 111.102 32.6403 111.102 31.8261V30.0498C111.127 29.285 111.645 28.8162 112.508 28.8162C113.396 28.8162 113.791 29.3097 113.791 30.1115V31.8261C113.791 32.6403 113.335 33.1337 112.447 33.1337Z" fill="#B8B8B8"/>
<path d="M116.762 34.0465C116.96 34.0465 117.145 33.9355 117.256 33.7628L119.982 29.3837V33.5408C119.982 33.8122 120.191 34.0465 120.463 34.0465C120.734 34.0465 120.944 33.8122 120.944 33.5408V28.1501C120.944 27.8417 120.734 27.6073 120.426 27.6073C120.216 27.6073 120.019 27.7184 119.92 27.9034L117.182 32.2702V28.1131C117.182 27.8417 116.96 27.6073 116.688 27.6073C116.417 27.6073 116.219 27.8417 116.219 28.1131V33.5038C116.219 33.7998 116.441 34.0465 116.762 34.0465Z" fill="#B8B8B8"/>
<path d="M126.227 29.3467C126.227 28.3105 125.549 27.5827 124.192 27.5827C123.525 27.5827 122.465 27.7554 122.465 28.2858C122.465 28.5078 122.65 28.7176 122.909 28.7176C122.995 28.7176 123.057 28.6929 123.131 28.6559C123.39 28.5449 123.686 28.4338 124.155 28.4338C124.944 28.4338 125.289 28.7299 125.289 29.285C125.289 29.6304 125.154 30.2595 123.933 30.3582C123.698 30.3829 123.365 30.3829 123.365 30.7653C123.365 31.1477 123.698 31.1723 123.97 31.1847C125.314 31.2587 125.413 31.8385 125.413 32.1839C125.413 32.8993 125.006 33.1707 124.278 33.1707C123.723 33.1707 123.242 33.0104 122.933 32.887C122.909 32.8747 122.921 32.8623 122.835 32.8623C122.465 32.8623 122.341 33.109 122.341 33.2941C122.341 33.8738 123.599 34.0219 124.241 34.0219C125.66 34.0219 126.35 33.3187 126.35 32.2455C126.35 31.4437 125.968 30.9133 125.055 30.7406C125.894 30.5802 126.227 30.0745 126.227 29.3467Z" fill="#B8B8B8"/>
<path d="M128.758 33.5408V31.1107H131.373V33.5408C131.373 33.8122 131.583 34.0219 131.855 34.0219C132.126 34.0219 132.336 33.8122 132.336 33.5408V28.1008C132.336 27.8417 132.126 27.6197 131.855 27.6197C131.583 27.6197 131.373 27.8417 131.373 28.1008V30.2965H128.758V28.1008C128.758 27.8417 128.549 27.6197 128.277 27.6197C128.006 27.6197 127.796 27.8417 127.796 28.1008V33.5408C127.796 33.8122 128.006 34.0219 128.277 34.0219C128.549 34.0219 128.758 33.8122 128.758 33.5408Z" fill="#B8B8B8"/>
<path d="M136.094 33.1707C135.206 33.1707 134.749 32.7266 134.749 32.0358V31.308C135.181 31.3821 135.638 31.4191 136.008 31.4191C137.476 31.4191 138.092 30.7283 138.092 29.5934C138.092 28.3722 137.414 27.5827 136.045 27.5827C134.577 27.5827 133.787 28.4832 133.787 29.6674V31.9742C133.787 33.1337 134.589 34.0219 135.983 34.0219C136.649 34.0219 137.981 33.8245 137.981 33.2201C137.981 32.998 137.796 32.7883 137.55 32.7883C137.463 32.7883 137.402 32.813 137.377 32.8253C136.945 33.0227 136.612 33.1707 136.094 33.1707ZM137.142 29.5934C137.142 30.0991 136.982 30.6049 136.045 30.6049C135.798 30.6049 135.206 30.5802 134.749 30.5186V29.581C134.749 28.8903 135.218 28.4585 136.02 28.4585C136.735 28.4585 137.142 28.7916 137.142 29.5934Z" fill="#B8B8B8"/>
<path d="M139.124 31.7521C139.124 33.0227 139.79 34.0219 141.332 34.0219C141.912 34.0219 143.047 33.8492 143.047 33.2694C143.047 33.0474 142.861 32.85 142.627 32.85C142.565 32.85 142.504 32.8623 142.43 32.887C142.134 33.035 141.862 33.1707 141.431 33.1707C140.468 33.1707 140.086 32.6526 140.086 31.7521V29.8894C140.086 28.9889 140.468 28.4708 141.431 28.4708C141.862 28.4708 142.134 28.6065 142.43 28.7546C142.504 28.7792 142.565 28.7916 142.627 28.7916C142.861 28.7916 143.047 28.5942 143.047 28.3722C143.047 27.7924 141.912 27.6197 141.332 27.6197C139.79 27.6197 139.124 28.6189 139.124 29.8894V31.7521Z" fill="#B8B8B8"/>
<path d="M147.359 30.4569C146.977 30.3459 146.558 30.2842 146.113 30.2842C144.658 30.2842 143.942 30.901 143.942 32.1099V32.1592C143.942 33.2694 144.559 34.0219 145.83 34.0219C146.496 34.0219 147.051 33.7998 147.52 33.3681C147.705 33.7505 148.038 33.9849 148.445 33.9849C148.716 33.9849 149 33.8739 149 33.5655C149 33.3558 148.877 33.146 148.642 33.146C148.593 33.146 148.581 33.1584 148.544 33.1584C148.396 33.1584 148.322 33.035 148.322 32.7883V30.0745C148.322 28.4462 147.705 27.5827 146.163 27.5827C145.312 27.5827 144.386 27.8171 144.436 28.3845C144.448 28.5695 144.547 28.7916 144.781 28.7916C144.917 28.7916 145.065 28.7052 145.102 28.6929C145.373 28.5449 145.608 28.4338 146.039 28.4338C146.928 28.4338 147.359 28.8532 147.359 29.7537V30.4569ZM146.101 31.0983C146.471 31.0983 146.952 31.16 147.359 31.2834V32.6156C146.928 32.9857 146.508 33.1584 145.978 33.1584C145.151 33.1584 144.892 32.7513 144.892 32.1715V32.1222C144.892 31.5671 145.09 31.0983 146.101 31.0983Z" fill="#B8B8B8"/>
<path d="M127.674 18.5034C127.674 19.866 126.569 20.9706 125.207 20.9706C123.844 20.9706 122.74 19.866 122.74 18.5034C122.74 17.1409 123.844 16.0363 125.207 16.0363C126.569 16.0363 127.674 17.1409 127.674 18.5034Z" fill="#7845CB"/>
</svg>
