<svg width="65" height="63" viewBox="0 0 65 63" fill="none" xmlns="http://www.w3.org/2000/svg">
<path d="M13.7893 39.9512L0 50.7073V3.07317C0 2.25812 0.326104 1.47644 0.906574 0.900111C1.48704 0.323779 2.27433 0 3.09524 0H49.5238C50.3447 0 51.132 0.323779 51.7125 0.900111C52.2929 1.47644 52.619 2.25812 52.619 3.07317V39.9512H13.7893ZM11.6474 33.8049H46.4286V6.14634H6.19048V38.0612L11.6474 33.8049ZM21.6667 46.0976H53.3526L58.8095 50.3539V18.439H61.9048C62.7257 18.439 63.513 18.7628 64.0934 19.3391C64.6739 19.9155 65 20.6971 65 21.5122V63L51.2107 52.2439H24.7619C23.941 52.2439 23.1537 51.9201 22.5732 51.3438C21.9928 50.7675 21.6667 49.9858 21.6667 49.1707V46.0976Z" fill="#7845CB"/>
</svg>
