<svg width="113" height="109" viewBox="0 0 113 109" fill="none" xmlns="http://www.w3.org/2000/svg">
<path d="M9 28C9 16.9543 17.9543 8 29 8H92C103.046 8 112 16.9543 112 28V88C112 99.0457 103.046 108 92 108H29C17.9543 108 9 99.0457 9 88V28Z" fill="#7845CB"/>
<path d="M1 21C1 9.9543 9.95431 1 21 1H84C95.0457 1 104 9.95431 104 21V81C104 92.0457 95.0457 101 84 101H21C9.95431 101 1 92.0457 1 81V21Z" fill="#F8F8F8"/>
<path d="M71.264 33.6H44.384V42.816C46.944 40.768 50.752 39.744 55.808 39.744C62.976 39.744 68.416 41.792 72.128 45.888C75.84 49.984 77.696 55.296 77.696 61.824C77.696 64.64 77.216 67.328 76.256 69.888C75.296 72.448 73.856 74.88 71.936 77.184C70.016 79.424 67.328 81.216 63.872 82.56C60.48 83.904 56.576 84.608 52.16 84.672H51.584C46.4 84.672 41.696 83.68 37.472 81.696C33.312 79.712 29.12 76.896 24.896 73.248L35.552 63.456C39.2 65.76 42.144 67.296 44.384 68.064C46.688 68.832 49.024 69.216 51.392 69.216H52.16C54.976 69.216 57.344 68.448 59.264 66.912C61.248 65.376 62.24 63.264 62.24 60.576C62.24 57.696 61.248 55.488 59.264 53.952C57.344 52.352 54.656 51.552 51.2 51.552C49.6 51.552 47.968 51.808 46.304 52.32C44.64 52.768 43.328 53.248 42.368 53.76C41.472 54.208 40.448 54.784 39.296 55.488C38.144 56.192 37.536 56.544 37.472 56.544L29.984 50.784V18.24H71.264V33.6Z" fill="#7845CB"/>
<path d="M77.264 39.6H50.384V48.816C52.944 46.768 56.752 45.744 61.808 45.744C68.976 45.744 74.416 47.792 78.128 51.888C81.84 55.984 83.696 61.296 83.696 67.824C83.696 70.64 83.216 73.328 82.256 75.888C81.296 78.448 79.856 80.88 77.936 83.184C76.016 85.424 73.328 87.216 69.872 88.56C66.48 89.904 62.576 90.608 58.16 90.672H57.584C52.4 90.672 47.696 89.68 43.472 87.696C39.312 85.712 35.12 82.896 30.896 79.248L41.552 69.456C45.2 71.76 48.144 73.296 50.384 74.064C52.688 74.832 55.024 75.216 57.392 75.216H58.16C60.976 75.216 63.344 74.448 65.264 72.912C67.248 71.376 68.24 69.264 68.24 66.576C68.24 63.696 67.248 61.488 65.264 59.952C63.344 58.352 60.656 57.552 57.2 57.552C55.6 57.552 53.968 57.808 52.304 58.32C50.64 58.768 49.328 59.248 48.368 59.76C47.472 60.208 46.448 60.784 45.296 61.488C44.144 62.192 43.536 62.544 43.472 62.544L35.984 56.784V24.24H77.264V39.6Z" fill="#F8F8F8"/>
<path d="M0.5 81C0.5 89.0787 5.17307 96.0659 11.9636 99.406C15.6426 104.89 21.8998 108.5 29 108.5H92C103.322 108.5 112.5 99.3218 112.5 88V28C112.5 19.9213 107.827 12.9341 101.036 9.59399C97.3574 4.10966 91.1002 0.5 84 0.5H21C9.67816 0.5 0.5 9.67816 0.5 21V81Z" stroke="#ECECEC"/>
</svg>
