<svg width="113" height="109" viewBox="0 0 113 109" fill="none" xmlns="http://www.w3.org/2000/svg">
<path d="M9 28C9 16.9543 17.9543 8 29 8H92C103.046 8 112 16.9543 112 28V88C112 99.0457 103.046 108 92 108H29C17.9543 108 9 99.0457 9 88V28Z" fill="#7845CB"/>
<path d="M1 21C1 9.9543 9.95431 1 21 1H84C95.0457 1 104 9.95431 104 21V81C104 92.0457 95.0457 101 84 101H21C9.95431 101 1 92.0457 1 81V21Z" fill="#F8F8F8"/>
<path d="M62.104 49.152C65.176 50.368 67.64 52.352 69.496 55.104C71.416 57.792 72.376 60.864 72.376 64.32C72.376 70.272 70.296 75.168 66.136 79.008C61.976 82.784 56.056 84.672 48.376 84.672H47.8C40.12 84.672 34.2 82.784 30.04 79.008C25.944 75.168 23.896 70.272 23.896 64.32C23.896 60.864 24.824 57.792 26.68 55.104C28.6 52.352 31.096 50.368 34.168 49.152C28.664 45.824 25.912 41.12 25.912 35.04C25.912 33.056 26.328 31.072 27.16 29.088C27.992 27.104 29.24 25.248 30.904 23.52C32.568 21.728 34.84 20.288 37.72 19.2C40.6 18.048 43.864 17.472 47.512 17.472H48.76C52.408 17.472 55.672 18.048 58.552 19.2C61.432 20.288 63.704 21.728 65.368 23.52C67.032 25.248 68.28 27.104 69.112 29.088C69.944 31.072 70.36 33.056 70.36 35.04C70.36 41.12 67.608 45.824 62.104 49.152ZM43.096 33.6C41.88 34.688 41.272 36.192 41.272 38.112C41.272 40.032 41.88 41.568 43.096 42.72C44.376 43.808 46.04 44.352 48.088 44.352C50.136 44.352 51.768 43.808 52.984 42.72C54.264 41.568 54.904 40.032 54.904 38.112C54.904 36.192 54.264 34.688 52.984 33.6C51.768 32.448 50.136 31.872 48.088 31.872C46.04 31.872 44.376 32.448 43.096 33.6ZM41.752 67.296C43.352 68.768 45.464 69.504 48.088 69.504C50.712 69.504 52.824 68.768 54.424 67.296C56.024 65.824 56.824 63.904 56.824 61.536C56.824 59.104 56.024 57.184 54.424 55.776C52.824 54.304 50.712 53.568 48.088 53.568C45.592 53.568 43.512 54.304 41.848 55.776C40.184 57.184 39.352 59.104 39.352 61.536C39.352 63.904 40.152 65.824 41.752 67.296Z" fill="#7845CB"/>
<path d="M69.104 55.152C72.176 56.368 74.64 58.352 76.496 61.104C78.416 63.792 79.376 66.864 79.376 70.32C79.376 76.272 77.296 81.168 73.136 85.008C68.976 88.784 63.056 90.672 55.376 90.672H54.8C47.12 90.672 41.2 88.784 37.04 85.008C32.944 81.168 30.896 76.272 30.896 70.32C30.896 66.864 31.824 63.792 33.68 61.104C35.6 58.352 38.096 56.368 41.168 55.152C35.664 51.824 32.912 47.12 32.912 41.04C32.912 39.056 33.328 37.072 34.16 35.088C34.992 33.104 36.24 31.248 37.904 29.52C39.568 27.728 41.84 26.288 44.72 25.2C47.6 24.048 50.864 23.472 54.512 23.472H55.76C59.408 23.472 62.672 24.048 65.552 25.2C68.432 26.288 70.704 27.728 72.368 29.52C74.032 31.248 75.28 33.104 76.112 35.088C76.944 37.072 77.36 39.056 77.36 41.04C77.36 47.12 74.608 51.824 69.104 55.152ZM50.096 39.6C48.88 40.688 48.272 42.192 48.272 44.112C48.272 46.032 48.88 47.568 50.096 48.72C51.376 49.808 53.04 50.352 55.088 50.352C57.136 50.352 58.768 49.808 59.984 48.72C61.264 47.568 61.904 46.032 61.904 44.112C61.904 42.192 61.264 40.688 59.984 39.6C58.768 38.448 57.136 37.872 55.088 37.872C53.04 37.872 51.376 38.448 50.096 39.6ZM48.752 73.296C50.352 74.768 52.464 75.504 55.088 75.504C57.712 75.504 59.824 74.768 61.424 73.296C63.024 71.824 63.824 69.904 63.824 67.536C63.824 65.104 63.024 63.184 61.424 61.776C59.824 60.304 57.712 59.568 55.088 59.568C52.592 59.568 50.512 60.304 48.848 61.776C47.184 63.184 46.352 65.104 46.352 67.536C46.352 69.904 47.152 71.824 48.752 73.296Z" fill="#F8F8F8"/>
<path d="M0.5 81C0.5 89.0787 5.17307 96.0659 11.9636 99.406C15.6426 104.89 21.8998 108.5 29 108.5H92C103.322 108.5 112.5 99.3218 112.5 88V28C112.5 19.9213 107.827 12.9341 101.036 9.59399C97.3574 4.10966 91.1002 0.5 84 0.5H21C9.67816 0.5 0.5 9.67816 0.5 21V81Z" stroke="#ECECEC"/>
</svg>
