<svg width="69" height="77" viewBox="0 0 69 77" fill="none" xmlns="http://www.w3.org/2000/svg">
<path d="M54.2019 41.7942V45.5936C54.2019 56.1181 51.7454 66.2817 47.1173 75.4042L46.2775 77L39.8144 73.2993C44.1058 65.3964 46.5105 56.5437 46.7769 47.3262L46.8028 45.5936V41.7942H54.2019ZM32.0047 30.3958H39.4037V45.5936L39.3852 47.0336C39.1056 57.4354 35.6199 67.4778 29.4298 75.7158L28.5752 76.8176L22.8409 72.0151C28.4878 64.9324 31.7012 56.1338 31.9825 46.9842L32.0047 45.5936V30.3958ZM35.7042 15.1979C40.6101 15.1979 45.315 17.1994 48.784 20.7621C52.253 24.3248 54.2019 29.1568 54.2019 34.1952H46.8028C46.8028 31.1722 45.6335 28.273 43.5521 26.1353C41.4707 23.9977 38.6477 22.7968 35.7042 22.7968C32.7607 22.7968 29.9377 23.9977 27.8563 26.1353C25.7749 28.273 24.6056 31.1722 24.6056 34.1952V45.5936C24.6056 54.0854 21.572 62.0985 16.204 68.303L15.4197 69.1769L10.0627 63.9336C14.391 59.2828 16.9226 53.1727 17.1843 46.7449L17.2065 45.5936V34.1952C17.2065 29.1568 19.1554 24.3248 22.6244 20.7621C26.0934 17.1994 30.7983 15.1979 35.7042 15.1979ZM35.7042 3.74799e-05C44.5348 3.74799e-05 53.0037 3.60273 59.2479 10.0156C65.4921 16.4284 69 25.1261 69 34.1952V45.5936C69 52.0451 68.2527 58.3978 66.7914 64.5529L66.2771 66.6009L59.137 64.6023C60.5873 59.1425 61.4049 53.5003 61.5713 47.7517L61.6009 45.5936V34.1952C61.6009 29.2592 60.2634 24.4206 57.7381 20.2208C55.2128 16.0211 51.5994 12.6259 47.3021 10.4153C43.0049 8.20467 38.1934 7.26584 33.4062 7.70386C28.6189 8.14187 24.0448 9.93945 20.1958 12.8954L14.9239 7.47739C20.819 2.62653 28.1503 -0.0114686 35.7042 3.74799e-05ZM9.68908 12.8536L14.9646 18.2679C11.7916 22.6115 9.99636 27.8524 9.82226 33.2796L9.80746 34.1952L9.82226 41.7942C9.82226 46.0496 8.84558 50.1644 7.00322 53.8651L6.42609 54.9669L0 51.1978C1.40582 48.6712 2.22712 45.852 2.3899 42.9036L2.42319 41.7942V34.1952C2.40125 26.438 4.96532 18.9067 9.68908 12.8536Z" fill="#7845CB"/>
</svg>
