<svg width="113" height="109" viewBox="0 0 113 109" fill="none" xmlns="http://www.w3.org/2000/svg">
<path d="M9 28C9 16.9543 17.9543 8 29 8H92C103.046 8 112 16.9543 112 28V88C112 99.0457 103.046 108 92 108H29C17.9543 108 9 99.0457 9 88V28Z" fill="#7845CB"/>
<path d="M1 21C1 9.9543 9.95431 1 21 1H84C95.0457 1 104 9.95431 104 21V81C104 92.0457 95.0457 101 84 101H21C9.95431 101 1 92.0457 1 81V21Z" fill="#F8F8F8"/>
<path d="M47.072 84.672H46.592C38.592 84.608 31.712 81.632 25.952 75.744L36.608 65.952C40.192 68.128 43.552 69.216 46.688 69.216H47.072C49.952 69.216 52.48 68.096 54.656 65.856C56.896 63.616 58.336 60.512 58.976 56.544C56.16 60.64 51.808 62.688 45.92 62.688C40.032 62.688 35.04 60.768 30.944 56.928C26.912 53.088 24.896 47.744 24.896 40.896C24.896 34.688 27.008 29.248 31.232 24.576C35.456 19.84 41.312 17.472 48.8 17.472C56.16 17.472 62.304 20.192 67.232 25.632C72.224 31.072 74.72 38.144 74.72 46.848V49.248C74.72 60.064 72.16 68.672 67.04 75.072C61.984 81.472 55.328 84.672 47.072 84.672ZM49.856 48.864C52.288 48.864 54.304 48.128 55.904 46.656C57.568 45.184 58.4 43.296 58.4 40.992C58.4 38.56 57.6 36.608 56 35.136C54.4 33.664 52.352 32.928 49.856 32.928C47.36 32.928 45.28 33.664 43.616 35.136C42.016 36.544 41.216 38.464 41.216 40.896C41.216 43.264 42.016 45.184 43.616 46.656C45.28 48.128 47.36 48.864 49.856 48.864Z" fill="#7845CB"/>
<path d="M53.072 90.672H52.592C44.592 90.608 37.712 87.632 31.952 81.744L42.608 71.952C46.192 74.128 49.552 75.216 52.688 75.216H53.072C55.952 75.216 58.48 74.096 60.656 71.856C62.896 69.616 64.336 66.512 64.976 62.544C62.16 66.64 57.808 68.688 51.92 68.688C46.032 68.688 41.04 66.768 36.944 62.928C32.912 59.088 30.896 53.744 30.896 46.896C30.896 40.688 33.008 35.248 37.232 30.576C41.456 25.84 47.312 23.472 54.8 23.472C62.16 23.472 68.304 26.192 73.232 31.632C78.224 37.072 80.72 44.144 80.72 52.848V55.248C80.72 66.064 78.16 74.672 73.04 81.072C67.984 87.472 61.328 90.672 53.072 90.672ZM55.856 54.864C58.288 54.864 60.304 54.128 61.904 52.656C63.568 51.184 64.4 49.296 64.4 46.992C64.4 44.56 63.6 42.608 62 41.136C60.4 39.664 58.352 38.928 55.856 38.928C53.36 38.928 51.28 39.664 49.616 41.136C48.016 42.544 47.216 44.464 47.216 46.896C47.216 49.264 48.016 51.184 49.616 52.656C51.28 54.128 53.36 54.864 55.856 54.864Z" fill="#F8F8F8"/>
<path d="M0.5 81C0.5 89.0787 5.17307 96.0659 11.9636 99.406C15.6426 104.89 21.8998 108.5 29 108.5H92C103.322 108.5 112.5 99.3218 112.5 88V28C112.5 19.9213 107.827 12.9341 101.036 9.59399C97.3574 4.10966 91.1002 0.5 84 0.5H21C9.67816 0.5 0.5 9.67816 0.5 21V81Z" stroke="#ECECEC"/>
</svg>
