<svg width="75" height="22" viewBox="0 0 75 22" fill="none" xmlns="http://www.w3.org/2000/svg">
<path d="M25.6469 0.677139C25.3314 0.588568 25.0609 0.544289 24.7454 0.544289C23.6636 0.544289 22.672 1.16429 22.3114 2.22714L19.2464 10.7743L16.1814 2.22714C15.8208 1.20857 14.8743 0.544285 13.7925 0.5C13.6573 0.5 13.6122 0.5 13.6122 0.5C12.5305 0.544285 11.5388 1.12 11.1783 2.22714L8.15832 10.7743L5.09332 2.22714C4.73273 1.16429 3.74111 0.544289 2.65934 0.544289C2.34382 0.544289 2.02831 0.588568 1.75787 0.677139C0.676103 1.03143 0 2.00571 0 3.11285C0 3.37857 0.0450762 3.68857 0.135223 3.95428L5.67927 19.4543C6.03986 20.4729 7.03148 21.1814 8.15832 21.1814C9.28516 21.1814 10.2768 20.4729 10.6374 19.4543L13.7024 10.8629L16.7674 19.4543C17.128 20.4729 18.1196 21.1814 19.2464 21.1814C20.3733 21.1814 21.3649 20.4729 21.7255 19.4543L27.2695 3.95428C27.3597 3.68857 27.4047 3.37857 27.4047 3.11285C27.4047 2.05 26.7286 1.03143 25.6469 0.677139Z" fill="#1E1E1E"/>
<path d="M39.7296 0C33.9601 0 29.2274 4.65 29.2274 10.3629C29.2274 16.0314 33.9601 20.6814 39.7296 20.6814C45.5441 20.6814 50.2768 16.0314 50.2768 10.3629C50.2768 4.65 45.5441 0 39.7296 0ZM39.7296 15.5C36.8448 15.5 34.501 13.1971 34.501 10.3629C34.501 7.48428 36.8448 5.18143 39.7296 5.18143C42.6593 5.18143 45.0032 7.48428 45.0032 10.3629C45.0032 13.1971 42.6593 15.5 39.7296 15.5Z" fill="#1E1E1E"/>
<path d="M63.5021 0C57.7327 0 53 4.65 53 10.3629C53 16.0314 57.7327 20.6814 63.5021 20.6814C69.3166 20.6814 74.0494 16.0314 74.0494 10.3629C74.0494 4.65 69.3166 0 63.5021 0ZM63.5021 15.5C60.6174 15.5 58.2736 13.1971 58.2736 10.3629C58.2736 7.48428 60.6174 5.18143 63.5021 5.18143C66.4319 5.18143 68.7758 7.48428 68.7758 10.3629C68.7758 13.1971 66.4319 15.5 63.5021 15.5Z" fill="#1E1E1E"/>
</svg>
