<?xml version="1.0" encoding="utf-8"?><svg viewBox="0 0 24 24" xmlns="http://www.w3.org/2000/svg" xmlns:xlink="http://www.w3.org/1999/xlink"><style>:root>svg{display:none}:root>svg:target{display:block}</style><svg fill="none" viewBox="0 0 18 23" id="map" xmlns="http://www.w3.org/2000/svg"><path fill-rule="evenodd" clip-rule="evenodd" d="M3.974 9.407C3.974 6.587 6.224 4.3 9 4.3s5.026 2.287 5.026 5.107c0 2.82-2.25 5.107-5.026 5.107s-5.026-2.287-5.026-5.107zM9 5.913c-1.9 0-3.439 1.564-3.439 3.494 0 1.93 1.54 3.494 3.439 3.494 1.9 0 3.439-1.564 3.439-3.494 0-1.93-1.54-3.494-3.439-3.494z" fill="#7845CB"/><path fill-rule="evenodd" clip-rule="evenodd" d="M.032 8.178C.407 3.557 4.208 0 8.772 0h.457c4.563 0 8.364 3.557 8.739 8.178a9.72 9.72 0 01-2.105 6.876l-5.072 6.302a2.29 2.29 0 01-3.582 0l-5.072-6.302A9.72 9.72 0 01.032 8.178zm8.74-6.565c-3.738 0-6.851 2.913-7.158 6.697a8.09 8.09 0 001.752 5.723l5.071 6.302a.72.72 0 001.126 0l5.071-6.302a8.09 8.09 0 001.752-5.723c-.307-3.784-3.42-6.697-7.157-6.697H8.77z" fill="#7845CB"/></svg><svg fill="none" viewBox="0 0 24 24" id="phone" xmlns="http://www.w3.org/2000/svg"><path fill-rule="evenodd" clip-rule="evenodd" d="M18.75 10.5l-.006.243.006.257-.006.243.006.257-.006.245.006.255-.162 7.103a3.359 3.359 0 01-2.996 3.262 33.364 33.364 0 01-7.184 0 3.359 3.359 0 01-2.996-3.262L5.25 12l.006-.257-.006-.243.006-.256L5.25 11l.006-.256-.006-.244.164-6.098c.002-.085.008-.17.018-.252l.003-.035.003-.029a2.663 2.663 0 011.355-2.068 2.872 2.872 0 011.235-.405 43.333 43.333 0 017.944 0 2.87 2.87 0 011.233.404 2.663 2.663 0 011.356 2.063l.008.074c.01.082.015.164.017.248l.164 6.098zm-1.676-6.18l.157 6.867-.127 4.73a2.1 2.1 0 01-1.907 2.036 34.875 34.875 0 01-6.394 0 2.1 2.1 0 01-1.907-2.035l-.127-4.73.157-6.867c0-.015 0-.03.002-.044.06-.403.292-.75.623-.96a1.16 1.16 0 01.412-.125c2.683-.291 5.39-.291 8.074 0 .148.016.287.059.412.124.33.211.564.558.623.961l.002.044zM12 21.7a1.5 1.5 0 100-3 1.5 1.5 0 000 3z" fill="#7845CB"/></svg></svg>